<svg version="1.1" xmlns="http://www.w3.org/2000/svg" xmlns:xlink="http://www.w3.org/1999/xlink" width="785.4000000000001" height="390"><style xmlns="http://www.w3.org/1999/xhtml"></style><defs/><g transform="translate(0,0)"><path fill="none" stroke="none" stroke-dasharray="undefined"/><g><rect fill="#FFFFFF" stroke="none" x="0" y="0" width="785.4000000000001" height="390"/></g><g data-width="80" data-height="60" data-layerId="3nQQA9GG4gOb" transform="translate(0,0) matrix(1,0,0,1,50,196)"><g><g transform="translate(0,0) scale(0.8,0.6)"><g><path fill="#0099CC" stroke="#0E75AB" stroke-dasharray="1.7976931348623157e+308" d="M 0 0 L 100 0 Q 100 0 100 0 L 100 100 Q 100 100 100 100 L 0 100 Q 0 100 0 100 L 0 0 Q 0 0 0 0 Z" stroke-miterlimit="10" stroke-width="2"/><g transform="scale(1.25,1.6666666666666667)"/></g></g></g></g><g transform="matrix(1,0,0,1,60,219)"><g><g><rect fill="rgb(0,0,0)" stroke="none" x="0" y="0" width="61" height="14" fill-opacity="0"/></g></g><g><g><rect fill="rgb(0,0,0)" stroke="none" x="0" y="0" width="61" height="14" fill-opacity="0"/></g></g><g><g><rect fill="rgb(0,0,0)" stroke="none" x="1.037500023841858" y="0" width="59" height="14" fill-opacity="0"/></g></g><g><g><rect fill="rgb(0,0,0)" stroke="none" x="1.037500023841858" y="0" width="59" height="14" fill-opacity="0"/></g><text fill="rgb(255, 255, 255)" stroke="none" font-family="Arial" font-size="12px" font-style="normal" font-weight="normal" text-decoration="" line-height="14px" x="1.037500023841858" y="12" data-layerId="3nQQA9GG4gOb">Application</text></g></g><g data-width="80" data-height="60" data-layerId="3nQQA9GG4gOb" transform="translate(0,0) matrix(1,0,0,1,45,203)"><g><g transform="translate(0,0) scale(0.8,0.6)"><g><path fill="#0099CC" stroke="#0E75AB" data-layerId="3nQQA9GG4gOb" stroke-dasharray="1.7976931348623157e+308" d="M 0 0 L 100 0 Q 100 0 100 0 L 100 100 Q 100 100 100 100 L 0 100 Q 0 100 0 100 L 0 0 Q 0 0 0 0 Z" stroke-miterlimit="10" stroke-width="2"/><g transform="scale(1.25,1.6666666666666667)"/></g></g></g></g><g transform="matrix(1,0,0,1,55,226)"><g><g><rect fill="rgb(0,0,0)" stroke="none" x="0" y="0" width="61" height="14" fill-opacity="0"/></g></g><g><g><rect fill="rgb(0,0,0)" stroke="none" x="0" y="0" width="61" height="14" fill-opacity="0"/></g></g><g><g><rect fill="rgb(0,0,0)" stroke="none" x="1.037500023841858" y="0" width="59" height="14" fill-opacity="0"/></g></g><g><g><rect fill="rgb(0,0,0)" stroke="none" x="1.037500023841858" y="0" width="59" height="14" fill-opacity="0"/></g><text fill="rgb(255, 255, 255)" stroke="none" font-family="Arial" font-size="12px" font-style="normal" font-weight="normal" text-decoration="" line-height="14px" x="1.037500023841858" y="12" data-layerId="3nQQA9GG4gOb">Application</text></g></g><g data-width="38" data-height="130" data-layerId="3nQQA9GG4gOb" transform="translate(0,0) matrix(-1.8369701987210297e-16,-1,1,-1.8369701987210297e-16,189,338)"><g><g transform="translate(0,0) scale(0.38,1.3)"><g><path fill="#EEEEEE" stroke="#AAAAAA" data-layerId="3nQQA9GG4gOb" stroke-dasharray="1.7976931348623157e+308" d="M 100 0 L 100 87.5 Q 100 100 50 100 Q 0 100 0 87.5 L 0 0 Q 0 -12.5 50 -12.5 Q 100 -12.5 100 0 Q 100 12.5 50 12.5 Q 0 12.5 0 0" stroke-miterlimit="10" stroke-width="2"/><g transform="scale(2.6315789473684212,0.7692307692307692)"/></g></g></g></g><g data-width="119.99999999999999" data-height="181" data-layerId="3nQQA9GG4gOb" transform="translate(0,0) matrix(1,0,0,1,20.000000000000007,189)"><g><g transform="translate(0,0) scale(1.2,1.81)"><g><path fill="rgb(255,255,255)" stroke="#0E75AB" data-layerId="3nQQA9GG4gOb" stroke-dasharray="1.7976931348623157e+308" d="M 0 0 L 100 0 Q 100 0 100 0 L 100 100 Q 100 100 100 100 L 0 100 Q 0 100 0 100 L 0 0 Q 0 0 0 0 Z" fill-opacity="0.008" stroke-miterlimit="10" stroke-width="2"/><g transform="scale(0.8333333333333334,0.5524861878453039)"/></g></g></g></g><g transform="matrix(1,0,0,1,30,138)"><g><g><rect fill="rgb(0,0,0)" stroke="none" x="0" y="0" width="99" height="45" fill-opacity="0"/></g></g><g><g><rect fill="rgb(0,0,0)" stroke="none" x="0" y="0" width="99" height="45" fill-opacity="0"/></g></g><g><g><rect fill="rgb(0,0,0)" stroke="none" x="16.25" y="0" width="67" height="45" fill-opacity="0"/></g></g><g><g><rect fill="rgb(0,0,0)" stroke="none" x="16.25" y="0" width="67" height="45" fill-opacity="0"/></g><text fill="rgb(0, 0, 0)" stroke="none" font-family="Arial" font-size="20px" font-style="normal" font-weight="normal" text-decoration="" line-height="22.75px" x="29.037500381469727" y="19" data-layerId="3nQQA9GG4gOb">Host</text><text fill="rgb(0, 0, 0)" stroke="none" font-family="Arial" font-size="20px" font-style="normal" font-weight="normal" text-decoration="" line-height="22.75px" x="16.25" y="41.39999961853027" data-layerId="3nQQA9GG4gOb">System</text></g></g><g data-width="190" data-height="340" data-layerId="3nQQA9GG4gOb" transform="translate(0,0) matrix(1,0,0,1,345,30)"><g><g transform="translate(0,0) scale(1.9,3.4)"><g><path fill="rgb(255,255,255)" stroke="#0E75AB" data-layerId="3nQQA9GG4gOb" stroke-dasharray="1.7976931348623157e+308" d="M 0 0 L 100 0 Q 100 0 100 0 L 100 100 Q 100 100 100 100 L 0 100 Q 0 100 0 100 L 0 0 Q 0 0 0 0 Z" fill-opacity="0.008" stroke-miterlimit="10" stroke-width="2"/><g transform="scale(0.5263157894736842,0.29411764705882354)"/></g></g></g></g><g transform="matrix(1,0,0,1,357,2)"><g><g><rect fill="rgb(0,0,0)" stroke="none" x="0" y="0" width="166" height="22" fill-opacity="0"/></g></g><g><g><rect fill="rgb(0,0,0)" stroke="none" x="0" y="0" width="166" height="22" fill-opacity="0"/></g></g><g><g><rect fill="rgb(0,0,0)" stroke="none" x="22.0625" y="0" width="122" height="22" fill-opacity="0"/></g></g><g><g><rect fill="rgb(0,0,0)" stroke="none" x="22.0625" y="0" width="122" height="22" fill-opacity="0"/></g><text fill="rgb(0, 0, 0)" stroke="none" font-family="Arial" font-size="20px" font-style="normal" font-weight="normal" text-decoration="" line-height="22.75px" x="22.0625" y="19" data-layerId="3nQQA9GG4gOb">Co</text><text fill="rgb(0, 0, 0)" stroke="none" font-family="Arial" font-size="20px" font-style="normal" font-weight="normal" text-decoration="" line-height="22.75px" x="47.625" y="19" data-layerId="3nQQA9GG4gOb">-</text><text fill="rgb(0, 0, 0)" stroke="none" font-family="Arial" font-size="20px" font-style="normal" font-weight="normal" text-decoration="" line-height="22.75px" x="54.28750228881836" y="19" data-layerId="3nQQA9GG4gOb">Processor</text></g></g><g data-width="80" data-height="60" data-layerId="3nQQA9GG4gOb" transform="translate(0,0) matrix(1,0,0,1,40,289)"><g><g transform="translate(0,0) scale(0.8,0.6)"><g><path fill="#0099CC" stroke="#0E75AB" data-layerId="3nQQA9GG4gOb" stroke-dasharray="1.7976931348623157e+308" d="M 0 0 L 100 0 Q 100 0 100 0 L 100 100 Q 100 100 100 100 L 0 100 Q 0 100 0 100 L 0 0 Q 0 0 0 0 Z" stroke-miterlimit="10" stroke-width="2"/><g transform="scale(1.25,1.6666666666666667)"/></g></g></g></g><g transform="matrix(1,0,0,1,50,305)"><g><g><rect fill="rgb(0,0,0)" stroke="none" x="0" y="0" width="61" height="27" fill-opacity="0"/></g></g><g><g><rect fill="rgb(0,0,0)" stroke="none" x="0" y="0" width="61" height="27" fill-opacity="0"/></g></g><g><g><rect fill="rgb(0,0,0)" stroke="none" x="7.712500095367432" y="0" width="46" height="27" fill-opacity="0"/></g></g><g><g><rect fill="rgb(0,0,0)" stroke="none" x="7.712500095367432" y="0" width="46" height="27" fill-opacity="0"/></g><text fill="rgb(255, 255, 255)" stroke="none" font-family="Arial" font-size="12px" font-style="normal" font-weight="normal" text-decoration="" line-height="14px" x="17.725000381469727" y="12" data-layerId="3nQQA9GG4gOb">CPC</text><text fill="rgb(255, 255, 255)" stroke="none" font-family="Arial" font-size="12px" font-style="normal" font-weight="normal" text-decoration="" line-height="14px" x="7.712500095367432" y="25.600000381469727" data-layerId="3nQQA9GG4gOb">Daemon</text></g></g><g data-width="80" data-height="60" data-layerId="3nQQA9GG4gOb" transform="translate(0,0) matrix(1,0,0,1,440,128.99999999999983)"><g><g transform="translate(0,0) scale(0.8,0.6)"><g><path fill="#0099CC" stroke="#0E75AB" data-layerId="3nQQA9GG4gOb" stroke-dasharray="1.7976931348623157e+308" d="M 0 0 L 100 0 Q 100 0 100 0 L 100 100 Q 100 100 100 100 L 0 100 Q 0 100 0 100 L 0 0 Q 0 0 0 0 Z" stroke-miterlimit="10" stroke-width="2"/><g transform="scale(1.25,1.6666666666666667)"/></g></g></g></g><g transform="matrix(1,0,0,1,450,145)"><g><g><rect fill="rgb(0,0,0)" stroke="none" x="0" y="0" width="61" height="27" fill-opacity="0"/></g></g><g><g><rect fill="rgb(0,0,0)" stroke="none" x="0" y="0" width="61" height="14" fill-opacity="0"/></g></g><g><g><rect fill="rgb(0,0,0)" stroke="none" x="5.037499904632568" y="0" width="51" height="14" fill-opacity="0"/></g></g><g><g><rect fill="rgb(0,0,0)" stroke="none" x="5.037499904632568" y="0" width="51" height="14" fill-opacity="0"/></g><text fill="rgb(255, 255, 255)" stroke="none" font-family="Arial" font-size="12px" font-style="normal" font-weight="normal" text-decoration="" line-height="14px" x="5.037499904632568" y="12" data-layerId="3nQQA9GG4gOb">Bluetooth</text></g><g><g><rect fill="rgb(0,0,0)" stroke="none" x="0" y="13.600000381469727" width="61" height="14" fill-opacity="0"/></g></g><g><g><rect fill="rgb(0,0,0)" stroke="none" x="10.387499809265137" y="13.600000381469727" width="40" height="14" fill-opacity="0"/></g></g><g><g><rect fill="rgb(0,0,0)" stroke="none" x="10.387499809265137" y="13.600000381469727" width="40" height="14" fill-opacity="0"/></g><text fill="rgb(255, 255, 255)" stroke="none" font-family="Arial" font-size="12px" font-style="normal" font-weight="normal" text-decoration="" line-height="14px" x="10.387499809265137" y="25.600000381469727" data-layerId="3nQQA9GG4gOb">Service</text></g></g><g data-width="80" data-height="60" data-layerId="3nQQA9GG4gOb" transform="translate(0,0) matrix(1,0,0,1,440,208.99999999999983)"><g><g transform="translate(0,0) scale(0.8,0.6)"><g><path fill="#0099CC" stroke="#0E75AB" data-layerId="3nQQA9GG4gOb" stroke-dasharray="1.7976931348623157e+308" d="M 0 0 L 100 0 Q 100 0 100 0 L 100 100 Q 100 100 100 100 L 0 100 Q 0 100 0 100 L 0 0 Q 0 0 0 0 Z" stroke-miterlimit="10" stroke-width="2"/><g transform="scale(1.25,1.6666666666666667)"/></g></g></g></g><g transform="matrix(1,0,0,1,450,225)"><g><g><rect fill="rgb(0,0,0)" stroke="none" x="0" y="0" width="61" height="27" fill-opacity="0"/></g></g><g><g><rect fill="rgb(0,0,0)" stroke="none" x="0" y="0" width="61" height="27" fill-opacity="0"/></g></g><g><g><rect fill="rgb(0,0,0)" stroke="none" x="10.387499809265137" y="0" width="40" height="27" fill-opacity="0"/></g></g><g><g><rect fill="rgb(0,0,0)" stroke="none" x="10.387499809265137" y="0" width="40" height="27" fill-opacity="0"/></g><text fill="rgb(255, 255, 255)" stroke="none" font-family="Arial" font-size="12px" font-style="normal" font-weight="normal" text-decoration="" line-height="14px" x="11.387499809265137" y="12" data-layerId="3nQQA9GG4gOb">ZigBee</text><text fill="rgb(255, 255, 255)" stroke="none" font-family="Arial" font-size="12px" font-style="normal" font-weight="normal" text-decoration="" line-height="14px" x="10.387499809265137" y="25.600000381469727" data-layerId="3nQQA9GG4gOb">Service</text></g></g><g data-width="80" data-height="60" data-layerId="3nQQA9GG4gOb" transform="translate(0,0) matrix(1,0,0,1,440,288.99999999999983)"><g><g transform="translate(0,0) scale(0.8,0.6)"><g><path fill="#0099CC" stroke="#0E75AB" data-layerId="3nQQA9GG4gOb" stroke-dasharray="1.7976931348623157e+308" d="M 0 0 L 100 0 Q 100 0 100 0 L 100 100 Q 100 100 100 100 L 0 100 Q 0 100 0 100 L 0 0 Q 0 0 0 0 Z" stroke-miterlimit="10" stroke-width="2"/><g transform="scale(1.25,1.6666666666666667)"/></g></g></g></g><g transform="matrix(1,0,0,1,450,299)"><g><g><rect fill="rgb(0,0,0)" stroke="none" x="0" y="0" width="61" height="41" fill-opacity="0"/></g></g><g><g><rect fill="rgb(0,0,0)" stroke="none" x="0" y="0" width="61" height="41" fill-opacity="0"/></g></g><g><g><rect fill="rgb(0,0,0)" stroke="none" x="8.725000381469727" y="0" width="43" height="41" fill-opacity="0"/></g></g><g><g><rect fill="rgb(0,0,0)" stroke="none" x="8.725000381469727" y="0" width="43" height="41" fill-opacity="0"/></g><text fill="rgb(255, 255, 255)" stroke="none" font-family="Arial" font-size="12px" font-style="normal" font-weight="normal" text-decoration="" line-height="14px" x="17.725000381469727" y="12" data-layerId="3nQQA9GG4gOb">CPC</text><text fill="rgb(255, 255, 255)" stroke="none" font-family="Arial" font-size="12px" font-style="normal" font-weight="normal" text-decoration="" line-height="14px" x="8.725000381469727" y="25.600000381469727" data-layerId="3nQQA9GG4gOb">Security</text><text fill="rgb(255, 255, 255)" stroke="none" font-family="Arial" font-size="12px" font-style="normal" font-weight="normal" text-decoration="" line-height="14px" x="10.387499809265137" y="39.20000076293945" data-layerId="3nQQA9GG4gOb">Service</text></g></g><g data-layerId="3nQQA9GG4gOb" transform="matrix(1,0,0,1,105,143.99999999999983)"><g transform="translate(0,0)"><path fill="none" stroke="none" stroke-dasharray="undefined"/><g transform="translate(-122,-163) translate(17,19.00000000000017) matrix(1,0,0,1,0,0)"><g><g><path fill="none" stroke="#000000" stroke-dasharray="undefined" d="M 120 319 L 360 319 Q 370 319 370 309 L 370 168.99999999999983 Q 370 158.99999999999983 380 158.99999999999983 L 440 158.99999999999983" stroke-miterlimit="10" stroke-width="2"/></g></g></g></g></g><g data-layerId="3nQQA9GG4gOb" transform="matrix(1,0,0,1,105,223.99999999999983)"><g transform="translate(0,0)"><path fill="none" stroke="none" stroke-dasharray="undefined"/><g transform="translate(-132,-13) translate(27,-210.99999999999983) matrix(1,0,0,1,0,0)"><g><g><path fill="none" stroke="#000000" stroke-dasharray="undefined" d="M 120 319 L 360 319 Q 370 319 370 309 L 370 248.99999999999983 Q 370 238.99999999999983 380 238.99999999999983 L 440 238.99999999999983" stroke-miterlimit="10" stroke-width="2"/></g></g></g></g></g><g data-layerId="3nQQA9GG4gOb" transform="matrix(1,0,0,1,105,303.99999999999983)"><g transform="translate(0,0)"><path fill="none" stroke="none" stroke-dasharray="undefined"/><g transform="translate(-142,-23) translate(37,-280.99999999999983) matrix(1,0,0,1,0,0)"><g><g><path fill="none" stroke="#000000" stroke-dasharray="undefined" d="M 120 318.99999999999983 L 216.66666666666666 318.99999999999983 Q 226.66666666666666 318.99999999999983 236.66666666666666 318.99999999999983 L 323.3333333333333 318.99999999999983 Q 333.3333333333333 318.99999999999983 343.3333333333333 318.99999999999983 L 440 318.99999999999983" stroke-miterlimit="10" stroke-width="2"/></g></g></g></g></g><g transform="matrix(1,0,0,1,171,349)"><g><g><rect fill="rgb(0,0,0)" stroke="none" x="0" y="0" width="146" height="14" fill-opacity="0"/></g></g><g><g><rect fill="rgb(0,0,0)" stroke="none" x="0" y="0" width="146" height="14" fill-opacity="0"/></g></g><g><g><rect fill="rgb(0,0,0)" stroke="none" x="23.637500762939453" y="0" width="98" height="14" fill-opacity="0"/></g></g><g><g><rect fill="rgb(0,0,0)" stroke="none" x="23.637500762939453" y="0" width="98" height="14" fill-opacity="0"/></g><text fill="rgb(7, 30, 45)" stroke="none" font-family="Arial" font-size="12px" font-style="normal" font-weight="normal" text-decoration="" line-height="14px" x="23.637500762939453" y="12" data-layerId="3nQQA9GG4gOb">Physical</text><text fill="rgb(7, 30, 45)" stroke="none" font-family="Arial" font-size="12px" font-style="normal" font-weight="normal" text-decoration="" line-height="14px" x="71.4375" y="12" data-layerId="3nQQA9GG4gOb">Transport</text></g></g><g transform="matrix(1,0,0,1,22,356)"><g><g><rect fill="rgb(0,0,0)" stroke="none" x="0" y="0" width="116" height="14" fill-opacity="0"/></g></g><g><g><rect fill="rgb(0,0,0)" stroke="none" x="0" y="0" width="116" height="14" fill-opacity="0"/></g></g><g><g><rect fill="rgb(0,0,0)" stroke="none" x="17.98750114440918" y="0" width="81" height="14" fill-opacity="0"/></g></g><g><g><rect fill="rgb(0,0,0)" stroke="none" x="17.98750114440918" y="0" width="81" height="14" fill-opacity="0"/></g><text fill="rgb(7, 30, 45)" stroke="none" font-family="Arial" font-size="12px" font-style="normal" font-weight="normal" text-decoration="" line-height="14px" x="17.98750114440918" y="12" data-layerId="3nQQA9GG4gOb">Primary</text><text fill="rgb(7, 30, 45)" stroke="none" font-family="Arial" font-size="12px" font-style="normal" font-weight="normal" text-decoration="" line-height="14px" x="62.650001525878906" y="12" data-layerId="3nQQA9GG4gOb">station</text></g></g><g transform="matrix(1,0,0,1,422,350)"><g><g><rect fill="rgb(0,0,0)" stroke="none" x="0" y="0" width="116" height="14" fill-opacity="0"/></g></g><g><g><rect fill="rgb(0,0,0)" stroke="none" x="0" y="0" width="116" height="14" fill-opacity="0"/></g></g><g><g><rect fill="rgb(0,0,0)" stroke="none" x="6.962500095367432" y="0" width="102" height="14" fill-opacity="0"/></g></g><g><g><rect fill="rgb(0,0,0)" stroke="none" x="6.962500095367432" y="0" width="102" height="14" fill-opacity="0"/></g><text fill="rgb(7, 30, 45)" stroke="none" font-family="Arial" font-size="12px" font-style="normal" font-weight="normal" text-decoration="" line-height="14px" x="6.962500095367432" y="12" data-layerId="3nQQA9GG4gOb">Secondary</text><text fill="rgb(7, 30, 45)" stroke="none" font-family="Arial" font-size="12px" font-style="normal" font-weight="normal" text-decoration="" line-height="14px" x="67.6624984741211" y="12" data-layerId="3nQQA9GG4gOb">stations</text></g></g><g data-width="130" data-height="161" data-layerId="3nQQA9GG4gOb" transform="translate(0,0) matrix(1,0,0,1,630,209)"><g><g transform="translate(0,0) scale(1.3,1.61)"><g><path fill="rgb(255,255,255)" stroke="#000000" data-layerId="3nQQA9GG4gOb" stroke-dasharray="2,2" d="M 0 0 L 100 0 Q 100 0 100 0 L 100 100 Q 100 100 100 100 L 0 100 Q 0 100 0 100 L 0 0 Q 0 0 0 0 Z" fill-opacity="0.008" stroke-miterlimit="10" stroke-width="2"/><g transform="scale(0.7692307692307692,0.6211180124223602)"/></g></g></g></g><g transform="matrix(1,0,0,1,641,189)"><g><g><rect fill="rgb(0,0,0)" stroke="none" x="0" y="0" width="109" height="14" fill-opacity="0"/></g></g><g><g><rect fill="rgb(0,0,0)" stroke="none" x="0" y="0" width="109" height="14" fill-opacity="0"/></g></g><g><g><rect fill="rgb(0,0,0)" stroke="none" x="34.375" y="0" width="40" height="14" fill-opacity="0"/></g></g><g><g><rect fill="rgb(0,0,0)" stroke="none" x="34.375" y="0" width="40" height="14" fill-opacity="0"/></g><text fill="rgb(0, 0, 0)" stroke="none" font-family="Arial" font-size="12px" font-style="normal" font-weight="normal" text-decoration="" line-height="14px" x="34.375" y="12" data-layerId="3nQQA9GG4gOb">Legend</text></g></g><g data-width="80" data-height="60" data-layerId="3nQQA9GG4gOb" transform="translate(0,0) matrix(1,0,0,1,655,229)"><g><g transform="translate(0,0) scale(0.8,0.6)"><g><path fill="#0099CC" stroke="#0E75AB" data-layerId="3nQQA9GG4gOb" stroke-dasharray="1.7976931348623157e+308" d="M 0 0 L 100 0 Q 100 0 100 0 L 100 100 Q 100 100 100 100 L 0 100 Q 0 100 0 100 L 0 0 Q 0 0 0 0 Z" stroke-miterlimit="10" stroke-width="2"/><g transform="scale(1.25,1.6666666666666667)"/></g></g></g></g><g transform="matrix(1,0,0,1,665,245)"><g><g><rect fill="rgb(0,0,0)" stroke="none" x="0" y="0" width="61" height="27" fill-opacity="0"/></g></g><g><g><rect fill="rgb(0,0,0)" stroke="none" x="0" y="0" width="61" height="27" fill-opacity="0"/></g></g><g><g><rect fill="rgb(0,0,0)" stroke="none" x="6.712500095367432" y="0" width="48" height="27" fill-opacity="0"/></g></g><g><g><rect fill="rgb(0,0,0)" stroke="none" x="6.712500095367432" y="0" width="48" height="27" fill-opacity="0"/></g><text fill="rgb(255, 255, 255)" stroke="none" font-family="Arial" font-size="12px" font-style="normal" font-weight="normal" text-decoration="" line-height="14px" x="6.712500095367432" y="12" data-layerId="3nQQA9GG4gOb">Software</text><text fill="rgb(255, 255, 255)" stroke="none" font-family="Arial" font-size="12px" font-style="normal" font-weight="normal" text-decoration="" line-height="14px" x="10.387499809265137" y="25.600000381469727" data-layerId="3nQQA9GG4gOb">Service</text></g></g><g data-layerId="3nQQA9GG4gOb" transform="matrix(1,0,0,1,631,310)"><g transform="translate(0,0)"><path fill="none" stroke="none" stroke-dasharray="undefined"/><g transform="translate(-623,-327) translate(-8,17) matrix(1,0,0,1,0,0)"><g><g><path fill="none" stroke="#000000" stroke-dasharray="undefined" d="M 646 325 L 741 325" stroke-miterlimit="10" stroke-width="2"/></g></g></g></g></g><g transform="matrix(1,0,0,1,659,338)"><g><path fill="none" stroke="none" data-layerId="3nQQA9GG4gOb" stroke-dasharray="1.7976931348623157e+308" d="M 0 0 L 68 0 L 68 14 L 0 14 Z"/><g><rect fill="rgb(255, 255, 255)" stroke="none" x="0" y="0" width="68" height="14"/></g></g><g><path fill="none" stroke="none" data-layerId="3nQQA9GG4gOb" stroke-dasharray="1.7976931348623157e+308" d="M 0 0 L 68 0 L 68 14 L 0 14 Z"/><g><rect fill="rgb(0,0,0)" stroke="none" x="0" y="0" width="68" height="14" fill-opacity="0"/></g></g><g><path fill="none" stroke="none" data-layerId="3nQQA9GG4gOb" stroke-dasharray="1.7976931348623157e+308" d="M 2.5 0 L 65.5 0 L 65.5 14 L 2.5 14 Z"/><g><rect fill="rgb(0,0,0)" stroke="none" x="2.5" y="0" width="63" height="14" fill-opacity="0"/></g><text fill="rgb(7, 30, 45)" stroke="none" font-family="Arial" font-size="12px" font-style="normal" font-weight="normal" text-decoration="" line-height="14px" x="2.5" y="12" data-layerId="3nQQA9GG4gOb">Logical</text><text fill="rgb(7, 30, 45)" stroke="none" font-family="Arial" font-size="12px" font-style="normal" font-weight="normal" text-decoration="" line-height="14px" x="43.85000228881836" y="12" data-layerId="3nQQA9GG4gOb">Link</text></g></g><g data-width="80" data-height="60" data-layerId="3nQQA9GG4gOb" transform="translate(0,0) matrix(1,0,0,1,40,209)"><g><g transform="translate(0,0) scale(0.8,0.6)"><g><path fill="#0099CC" stroke="#0E75AB" data-layerId="3nQQA9GG4gOb" stroke-dasharray="1.7976931348623157e+308" d="M 0 0 L 100 0 Q 100 0 100 0 L 100 100 Q 100 100 100 100 L 0 100 Q 0 100 0 100 L 0 0 Q 0 0 0 0 Z" stroke-miterlimit="10" stroke-width="2"/><g transform="scale(1.25,1.6666666666666667)"/></g></g></g></g><g transform="matrix(1,0,0,1,50,232)"><g><g><rect fill="rgb(0,0,0)" stroke="none" x="0" y="0" width="61" height="14" fill-opacity="0"/></g></g><g><g><rect fill="rgb(0,0,0)" stroke="none" x="0" y="0" width="61" height="14" fill-opacity="0"/></g></g><g><g><rect fill="rgb(0,0,0)" stroke="none" x="1.037500023841858" y="0" width="59" height="14" fill-opacity="0"/></g></g><g><g><rect fill="rgb(0,0,0)" stroke="none" x="1.037500023841858" y="0" width="59" height="14" fill-opacity="0"/></g><text fill="rgb(255, 255, 255)" stroke="none" font-family="Arial" font-size="12px" font-style="normal" font-weight="normal" text-decoration="" line-height="14px" x="1.037500023841858" y="12" data-layerId="3nQQA9GG4gOb">Application</text></g></g><g data-layerId="3nQQA9GG4gOb" transform="matrix(1,0,0,1,65,254)"><g transform="translate(0,0)"><path fill="none" stroke="none" stroke-dasharray="undefined"/><g transform="translate(-85,-267) translate(20,13) matrix(1,0,0,1,0,0)"><g><g><path fill="none" stroke="#0E75AB" stroke-dasharray="undefined" d="M 80 269 Q 80 275.6666666666667 80 279 Q 80 282.3333333333333 80 289" stroke-miterlimit="10" stroke-width="2"/></g></g></g></g></g><g data-width="80" data-height="60" data-layerId="3nQQA9GG4gOb" transform="translate(0,0) matrix(1,0,0,1,440,49.99999999999983)"><g><g transform="translate(0,0) scale(0.8,0.6)"><g><path fill="#0099CC" stroke="#0E75AB" data-layerId="3nQQA9GG4gOb" stroke-dasharray="1.7976931348623157e+308" d="M 0 0 L 100 0 Q 100 0 100 0 L 100 100 Q 100 100 100 100 L 0 100 Q 0 100 0 100 L 0 0 Q 0 0 0 0 Z" stroke-miterlimit="10" stroke-width="2"/><g transform="scale(1.25,1.6666666666666667)"/></g></g></g></g><g transform="matrix(1,0,0,1,450,66)"><g><g><rect fill="rgb(0,0,0)" stroke="none" x="0" y="0" width="61" height="27" fill-opacity="0"/></g></g><g><g><rect fill="rgb(0,0,0)" stroke="none" x="0" y="0" width="61" height="27" fill-opacity="0"/></g></g><g><g><rect fill="rgb(0,0,0)" stroke="none" x="1.375" y="0" width="58" height="27" fill-opacity="0"/></g><text fill="rgb(255, 255, 255)" stroke="none" font-family="Arial" font-size="12px" font-style="normal" font-weight="normal" text-decoration="" line-height="normal" x="1.375" y="12" data-layerId="3nQQA9GG4gOb">Bootloader</text><text fill="rgb(255, 255, 255)" stroke="none" font-family="Arial" font-size="12px" font-style="normal" font-weight="normal" text-decoration="" line-height="normal" x="10.387499809265137" y="25.600000381469727" data-layerId="3nQQA9GG4gOb">Service</text></g></g><g data-layerId="3nQQA9GG4gOb" transform="matrix(1,0,0,1,105,64.99999999999983)"><g transform="translate(0,0)"><path fill="none" stroke="none" stroke-dasharray="undefined"/><g transform="translate(-132,-331) translate(27,266.00000000000017) matrix(1,0,0,1,0,0)"><g><g><path fill="none" stroke="#000000" stroke-dasharray="undefined" d="M 120 319 L 360 319 Q 370 319 370 309 L 370 89.99999999999983 Q 370 79.99999999999983 380 79.99999999999983 L 440 79.99999999999983" stroke-miterlimit="10" stroke-width="2"/></g></g></g></g></g><g data-width="300" data-height="25" data-layerId="3nQQA9GG4gOb" transform="translate(0,0) matrix(-1.8369701987210297e-16,-1,1,-1.8369701987210297e-16,395,349.5)"><g><g transform="translate(0,0) scale(3,0.25)"><g><path fill="#0099CC" stroke="#0E75AB" data-layerId="3nQQA9GG4gOb" stroke-dasharray="1.7976931348623157e+308" d="M 0 0 L 100 0 Q 100 0 100 0 L 100 100 Q 100 100 100 100 L 0 100 Q 0 100 0 100 L 0 0 Q 0 0 0 0 Z" stroke-miterlimit="10" stroke-width="2"/><g transform="scale(0.3333333333333333,4)"/></g></g></g></g><g transform="matrix(-1.8369701987210297e-16,-1,1,-1.8369701987210297e-16,401,336)"><g><g><rect fill="rgb(0,0,0)" stroke="none" x="0" y="0" width="272" height="14" fill-opacity="0"/></g></g><g><g><rect fill="rgb(0,0,0)" stroke="none" x="0" y="0" width="272" height="14" fill-opacity="0"/></g></g><g><g><rect fill="rgb(0,0,0)" stroke="none" x="103.32500457763672" y="0" width="66" height="14" fill-opacity="0"/></g></g><g><g><rect fill="rgb(0,0,0)" stroke="none" x="103.32500457763672" y="0" width="66" height="14" fill-opacity="0"/></g><text fill="rgb(255, 255, 255)" stroke="none" font-family="Arial" font-size="12px" font-style="normal" font-weight="normal" text-decoration="" line-height="14px" x="103.32500457763672" y="12" data-layerId="3nQQA9GG4gOb">Device</text><text fill="rgb(255, 255, 255)" stroke="none" font-family="Arial" font-size="12px" font-style="normal" font-weight="normal" text-decoration="" line-height="14px" x="143.33750915527344" y="12" data-layerId="3nQQA9GG4gOb">CPC</text></g></g></g></svg>