<svg xmlns="http://www.w3.org/2000/svg" xmlns:xlink="http://www.w3.org/1999/xlink" xmlns:lucid="lucid" width="1282.22" height="2187.97"><g transform="translate(225.14756530118797 312.07289743171555)" lucid:page-tab-id="0_0"><path d="M592.66-251.57c0 22.1-17.9 40-40 40s-40-17.9-40-40 17.9-40 40-40 40 17.9 40 40z" stroke="#3a414a" fill="#fff"/><use xlink:href="#a" transform="matrix(1,0,0,1,517.6583715399302,-286.57289743171555) translate(11.574074074074076 39.65277777777778)"/><path d="M548.18 171.46a6.7 6.7 0 0 1 8.95 0l103.72 92.67a5.36 5.36 0 0 1 0 8L557.13 364.8a6.7 6.7 0 0 1-8.95 0l-103.7-92.67a5.36 5.36 0 0 1 0-8z" stroke="#3a414a" fill="#fff"/><use xlink:href="#b" transform="matrix(1,0,0,1,444.9917048732635,172.46609721777978) translate(78.4370987654321 71.77777777777777)"/><use xlink:href="#c" transform="matrix(1,0,0,1,444.9917048732635,172.46609721777978) translate(71.7333950617284 98.44444444444446)"/><use xlink:href="#d" transform="matrix(1,0,0,1,444.9917048732635,172.46609721777978) translate(77.85067901234568 125.11111111111111)"/><path d="M537.82 554.4a8 8 0 0 1 9.6 0l70.4 52.8a4.5 4.5 0 0 1 0 7.2l-70.4 52.8a8 8 0 0 1-9.6 0l-70.4-52.8a4.5 4.5 0 0 1 0-7.2z" stroke="#3a414a" fill="#fff"/><use xlink:href="#e" transform="matrix(1,0,0,1,467.616895906481,555.7857501401165) translate(23.276604938271603 59.02777777777778)"/><use xlink:href="#f" transform="matrix(1,0,0,1,467.616895906481,555.7857501401165) translate(86.05438271604939 59.02777777777778)"/><path d="M543.12 736.3h-1v-14.65h1zm0-36h-1v-30.5h1z" stroke="#3a414a" stroke-width=".05" fill="#3a414a"/><path d="M542.62 669.3l.5-.04v.54h-1v-.54z" fill="#3a414a"/><path d="M542.62 669.26l.52-.03v.6h-1.05v-.6zm-.48.5h.95v-.48l-.48.03-.48-.02z" stroke="#3a414a" stroke-width=".05" fill="#3a414a"/><path d="M542.62 751.05l-4.64-14.26h9.27z" fill="#3a414a"/><path d="M542.62 752.67l-5.33-16.38h10.64zm-3.95-15.38l3.95 12.14 3.94-12.15z" stroke="#3a414a" stroke-width=".05" fill="#3a414a"/><use xlink:href="#g" transform="matrix(1,0,0,1,518.0243033138884,700.3133378901417) translate(0 14.222222222222223)"/><path d="M462.62 912.45a6 6 0 0 1 6-6h148a6 6 0 0 1 6 6v108a6 6 0 0 1-6 6h-148a6 6 0 0 1-6-6z" stroke="#3a414a" fill="#fff"/><use xlink:href="#h" transform="matrix(1,0,0,1,474.616895906481,918.4450754048685) translate(47.660493827160494 26.77777777777778)"/><use xlink:href="#i" transform="matrix(1,0,0,1,474.616895906481,918.4450754048685) translate(38.27777777777778 53.44444444444445)"/><use xlink:href="#j" transform="matrix(1,0,0,1,474.616895906481,918.4450754048685) translate(20.160493827160494 80.11111111111111)"/><path d="M715.12 889.56h-1v-54.2h1zm-5.5-279.2l1 .24.95.4.87.53.77.66.68.76.53.87.4.95.24 1 .08 1V814h-1V616.8l-.07-.87-.2-.84-.33-.8-.45-.75-.57-.65-.65-.56-.74-.45-.78-.34-.84-.2-.88-.07h-87.98v-1h88.02z" stroke="#3a414a" stroke-width=".05" fill="#3a414a"/><path d="M620.63 611.3h-.56l.05-.5-.05-.5h.56z" fill="#3a414a"/><path d="M620.66 611.3h-.62l.05-.5-.06-.54h.62zm-.56-1l.04.5-.04.46h.5v-.95z" stroke="#3a414a" stroke-width=".05" fill="#3a414a"/><path d="M714.62 904.33l-4.64-14.27h9.27z" fill="#3a414a"/><path d="M714.62 905.95l-5.33-16.4h10.64zm-3.95-15.4l3.95 12.16 3.94-12.14z" stroke="#3a414a" stroke-width=".05" fill="#3a414a"/><use xlink:href="#k" transform="matrix(1,0,0,1,700.2959082521605,814.0136723775269) translate(0 14.222222222222223)"/><path d="M634.62 912.45a6 6 0 0 1 6-6h148a6 6 0 0 1 6 6v108a6 6 0 0 1-6 6h-148a6 6 0 0 1-6-6z" stroke="#3a414a" fill="#fff"/><use xlink:href="#l" transform="matrix(1,0,0,1,646.6168959064814,918.4450754048685) translate(7.783950617283956 38.77777777777778)"/><use xlink:href="#m" transform="matrix(1,0,0,1,646.6168959064814,918.4450754048685) translate(92.41358024691357 38.77777777777778)"/><use xlink:href="#n" transform="matrix(1,0,0,1,646.6168959064814,918.4450754048685) translate(36.54938271604939 65.44444444444446)"/><path d="M811.2 428.76a8 8 0 0 1 9.6 0l70.4 52.8a4.5 4.5 0 0 1 0 7.2l-70.4 52.8a8 8 0 0 1-9.6 0l-70.4-52.8a4.5 4.5 0 0 1 0-7.2z" stroke="#3a414a" fill="#fff"/><use xlink:href="#o" transform="matrix(1,0,0,1,740.9955759324282,430.16148630723586) translate(33.09141975308642 45.27777777777778)"/><use xlink:href="#p" transform="matrix(1,0,0,1,740.9955759324282,430.16148630723586) translate(33.09141975308641 71.94444444444446)"/><path d="M595.2 486.16h-46.54l-.82.07-.77.18-.72.3-.67.42-.6.5-.5.6-.42.67-.3.72-.18.76-.06.82v42.58h-2v-42.66l.08-1.05.26-1.07.42-1.02.57-.94.7-.83.85-.7.94-.58 1-.42 1.08-.25 1.06-.1h46.6zm142.3 0H618.8v-2h118.7z" stroke="#e81313" stroke-width=".05" fill="#e81313"/><path d="M738.58 484.24l-.1.92.1.92-1.1.08v-2h1.12z" fill="#e81313"/><path d="M738.6 484.24l-.08.92.1.95-1.18.1v-2.06h1.2zm-1.1-.05v1.94l1.05-.08-.08-.9.08-.93.02-.04z" stroke="#e81313" stroke-width=".05" fill="#e81313"/><path d="M542.62 549.05l-4.64-14.27h9.27z" fill="#e81313"/><path d="M542.62 552.3l-6-18.52h12zm-3.26-16.52l3.26 10.03 3.26-10.02z" stroke="#e81313" stroke-width=".05" fill="#e81313"/><use xlink:href="#q" transform="matrix(1,0,0,1,595.191085606975,474.4948196405692) translate(0 14.222222222222223)"/><path d="M810.45 267.22l1.07.25 1 .42.95.57.83.7.72.85.57.93.4 1.02.27 1.07.08 1.05v134.1h-2V274.17l-.06-.82-.2-.76-.3-.74-.4-.66-.5-.6-.6-.5-.68-.42-.72-.3-.77-.18-.82-.07h-42.05v-2h42.14zm-146.3 1.9v-2h72.48v2z" stroke="#008a0e" stroke-width=".05" fill="#008a0e"/><path d="M664.17 269.13h-1.12l.1-1-.1-.98 1.12-.02z" fill="#008a0e"/><path d="M664.2 269.16h-1.17l.1-1.03-.1-1 1.16-.02zm-1.1-2l.07.97-.1.98h1.07v-1.94z" stroke="#008a0e" stroke-width=".05" fill="#008a0e"/><path d="M815.35 423.47l-4.63-14.27H820z" fill="#008a0e"/><path d="M815.35 426.7l-6-18.5h12zm-3.26-16.5l3.25 10.03 3.26-10.03z" stroke="#008a0e" stroke-width=".05" fill="#008a0e"/><use xlink:href="#r" transform="matrix(1,0,0,1,736.632515985956,257.4660971453955) translate(0 14.222222222222223)"/><path d="M462.62 1365a6 6 0 0 1 6-6h148a6 6 0 0 1 6 6v108a6 6 0 0 1-6 6h-148a6 6 0 0 1-6-6z" stroke="#3a414a" fill="#fff"/><use xlink:href="#s" transform="matrix(1,0,0,1,474.616895906481,1371.0117869580174) translate(1.487654320987673 38.77777777777778)"/><use xlink:href="#t" transform="matrix(1,0,0,1,474.616895906481,1371.0117869580174) translate(75.37654320987654 38.77777777777778)"/><use xlink:href="#u" transform="matrix(1,0,0,1,474.616895906481,1371.0117869580174) translate(34.51234567901235 65.44444444444446)"/><path d="M222.6 1222.15a6 6 0 0 1 6-6h148a6 6 0 0 1 6 6v108a6 6 0 0 1-6 6h-148a6 6 0 0 1-6-6z" stroke="#3a414a" fill="#fff"/><use xlink:href="#s" transform="matrix(1,0,0,1,234.58869247570897,1228.1550890178194) translate(9.450617283950628 26.77777777777778)"/><use xlink:href="#v" transform="matrix(1,0,0,1,234.58869247570897,1228.1550890178194) translate(83.33950617283949 26.77777777777778)"/><use xlink:href="#w" transform="matrix(1,0,0,1,234.58869247570897,1228.1550890178194) translate(27.320987654320987 53.44444444444445)"/><use xlink:href="#x" transform="matrix(1,0,0,1,234.58869247570897,1228.1550890178194) translate(77.81481481481481 53.44444444444445)"/><use xlink:href="#y" transform="matrix(1,0,0,1,234.58869247570897,1228.1550890178194) translate(16.79629629629629 80.11111111111111)"/><path d="M542.62 1027.44v87.86a6 6 0 0 1-6 6H308.6a6 6 0 0 0-6 6v71.97" stroke="#3a414a" fill="none"/><path d="M543.12 1027.46h-1v-.52h1z" stroke="#3a414a" stroke-width=".05" fill="#3a414a"/><path d="M302.6 1214.04l-4.65-14.27h9.27z" stroke="#3a414a" fill="#3a414a"/><path d="M714.62 1027.44v87.86a6 6 0 0 1-6 6H308.6a6 6 0 0 0-6 6v71.97" stroke="#3a414a" fill="none"/><path d="M715.12 1027.46h-1v-.52h1z" stroke="#3a414a" stroke-width=".05" fill="#3a414a"/><path d="M302.6 1214.04l-4.65-14.27h9.27z" stroke="#3a414a" fill="#3a414a"/><path d="M462.62 761.35a6 6 0 0 1 6-6h148a6 6 0 0 1 6 6v108a6 6 0 0 1-6 6h-148a6 6 0 0 1-6-6z" stroke="#3a414a" fill="#fff"/><use xlink:href="#z" transform="matrix(1,0,0,1,474.616895906481,767.3518594949296) translate(28.771604938271608 26.77777777777778)"/><use xlink:href="#A" transform="matrix(1,0,0,1,474.616895906481,767.3518594949296) translate(12.475308641975317 53.44444444444445)"/><use xlink:href="#B" transform="matrix(1,0,0,1,474.616895906481,767.3518594949296) translate(108.70987654320987 53.44444444444445)"/><use xlink:href="#C" transform="matrix(1,0,0,1,474.616895906481,767.3518594949296) translate(5.839506172839506 80.11111111111111)"/><use xlink:href="#D" transform="matrix(1,0,0,1,474.616895906481,767.3518594949296) translate(58.74074074074074 80.11111111111111)"/><path d="M542.62 876.35v13.2" stroke="#3a414a" fill="none"/><path d="M543.12 876.37h-1v-.52h1z" stroke="#3a414a" stroke-width=".05" fill="#3a414a"/><path d="M542.62 904.33l-4.64-14.27h9.27z" stroke="#3a414a" fill="#3a414a"/><path d="M76.57 424.43a8 8 0 0 1 9.6 0l70.4 52.8a4.5 4.5 0 0 1 0 7.2l-70.4 52.8a8 8 0 0 1-9.6 0l-70.4-52.8a4.5 4.5 0 0 1 0-7.2z" stroke="#3a414a" fill="#fff"/><use xlink:href="#E" transform="matrix(1,0,0,1,6.370384899249473,425.8267704527863) translate(31.2087037037037 45.78777777777778)"/><use xlink:href="#F" transform="matrix(1,0,0,1,6.370384899249473,425.8267704527863) translate(50.40623456790124 72.45444444444445)"/><path d="M934.5 1272.2l-.1 1.05-.24 1.07-.42 1-.58.95-.7.84-.85.72-.92.58-1.02.4-1.07.27-1.06.1-378.88-.02-.82.07-.77.18-.72.3-.67.4-.6.52-.5.6-.42.67-.3.7-.18.77-.06.82v55.8h-2v-55.88l.08-1.06.26-1.07.42-1.02.57-.94.7-.84.85-.7.94-.6 1-.4 1.08-.26 1.06-.1h378.88l.82-.05.76-.2.73-.3.66-.4.6-.5.5-.6.42-.68.3-.72.18-.76.07-.82v-451h2zm-5.9-787.96l1.06.26 1.02.42.93.58.85.7.7.85.6.93.4 1.02.26 1.07.1 1.05V799.8h-2V491.2l-.07-.82-.18-.76-.3-.73-.4-.68-.52-.6-.6-.5-.66-.4-.73-.3-.76-.2-.82-.06H894.5v-2h33.04z" stroke="#008a0e" stroke-width=".05" fill="#008a0e"/><path d="M894.52 486.16h-1.13l.1-1-.1-.92 1.12-.08z" fill="#008a0e"/><path d="M894.55 486.2h-1.2l.12-1.04-.1-.94 1.18-.1zm-1.1-1.94l.07.9-.1.98h1.08v-1.95z" stroke="#008a0e" stroke-width=".05" fill="#008a0e"/><path d="M542.62 1355.28l-4.64-14.27h9.27z" fill="#008a0e"/><path d="M542.62 1358.5l-6-18.5h12zm-3.26-16.5l3.26 10.04 3.26-10.03z" stroke="#008a0e" stroke-width=".05" fill="#008a0e"/><use xlink:href="#r" transform="matrix(1,0,0,1,918.1890489361264,799.7946230907329) translate(0 14.222222222222223)"/><path d="M303.6 1197.15h-2v-410.1h2zm-5.92-717.24l1.07.27 1.02.42.94.56.84.7.7.85.6.95.4 1 .27 1.08.1 1.06V765.7h-2V486.87l-.08-.82-.18-.77-.3-.72-.4-.67-.52-.6-.6-.52-.66-.4-.73-.3-.76-.2-.82-.05H159.87v-2h136.76z" stroke="#008a0e" stroke-width=".05" fill="#008a0e"/><path d="M159.9 481.83h-1.14l.1-1-.07-.93 1.1-.07z" fill="#008a0e"/><path d="M159.92 481.85h-1.18l.1-1.02-.08-.95 1.16-.08zm-1.1-1.92l.08.9-.1.97h1.07v-1.95z" stroke="#008a0e" stroke-width=".05" fill="#008a0e"/><path d="M302.6 1212.42l-4.65-14.27h9.27z" fill="#008a0e"/><path d="M302.6 1215.65l-6.02-18.5h12.02zm-3.27-16.5l3.26 10.03 3.25-10.03z" stroke="#008a0e" stroke-width=".05" fill="#008a0e"/><use xlink:href="#r" transform="matrix(1,0,0,1,287.28005050040036,765.7161917699098) translate(0 14.222222222222223)"/><path d="M383.6 1276.15H536.6a6 6 0 0 1 6 6v59.98" stroke="#3a414a" fill="none"/><path d="M383.6 1276.65h-.5v-1h.5z" stroke="#3a414a" stroke-width=".05" fill="#3a414a"/><path d="M542.62 1356.9l-4.64-14.27h9.27z" stroke="#3a414a" fill="#3a414a"/><path d="M76.57 678.4a8 8 0 0 1 9.6 0l70.4 52.8a4.5 4.5 0 0 1 0 7.2l-70.4 52.8a8 8 0 0 1-9.6 0l-70.4-52.8a4.5 4.5 0 0 1 0-7.2z" stroke="#3a414a" fill="#fff"/><use xlink:href="#o" transform="matrix(1,0,0,1,6.370384899249416,679.7857501401165) translate(33.09141975308642 45.27777777777778)"/><use xlink:href="#p" transform="matrix(1,0,0,1,6.370384899249416,679.7857501401165) translate(33.09141975308641 71.94444444444446)"/><path d="M82.37 657.78h-2v-39.3h2zm0-60.64h-2v-56.8h2z" stroke="#e81313" stroke-width=".05" fill="#e81313"/><path d="M81.37 539.33l1-.07v1.1h-2v-1.1z" fill="#e81313"/><path d="M81.37 539.3l1.02-.06v1.14h-2.06v-1.14zm-.98 1.03h1.94v-1.04l-.97.05-.98-.06z" stroke="#e81313" stroke-width=".05" fill="#e81313"/><path d="M81.37 673.05l-4.64-14.27h9.28z" fill="#e81313"/><path d="M81.37 676.28l-6-18.5h12zm-3.26-16.5l3.27 10.03 3.26-10.02z" stroke="#e81313" stroke-width=".05" fill="#e81313"/><use xlink:href="#q" transform="matrix(1,0,0,1,69.567915763447,597.1395936297848) translate(0 14.222222222222223)"/><path d="M1.37 1108.15a6 6 0 0 1 6-6h148a6 6 0 0 1 6 6v108a6 6 0 0 1-6 6h-148a6 6 0 0 1-6-6z" stroke="#3a414a" fill="#fff"/><use xlink:href="#G" transform="matrix(1,0,0,1,13.370384899249416,1114.1550890178194) translate(10.037037037037038 38.77777777777778)"/><use xlink:href="#H" transform="matrix(1,0,0,1,13.370384899249416,1114.1550890178194) translate(56.88888888888889 38.77777777777778)"/><use xlink:href="#B" transform="matrix(1,0,0,1,13.370384899249416,1114.1550890178194) translate(111.14814814814815 38.77777777777778)"/><use xlink:href="#I" transform="matrix(1,0,0,1,13.370384899249416,1114.1550890178194) translate(2.0432098765432016 65.44444444444446)"/><use xlink:href="#J" transform="matrix(1,0,0,1,13.370384899249416,1114.1550890178194) translate(44.01851851851851 65.44444444444446)"/><path d="M82.37 1083.15h-2v-125h2zm0-146.35h-2V794.3h2z" stroke="#008a0e" stroke-width=".05" fill="#008a0e"/><path d="M81.37 793.3l1-.08v1.1h-2v-1.1z" fill="#008a0e"/><path d="M81.37 793.26l1.02-.06v1.14h-2.06v-1.14zm-.98 1.03h1.94v-1.05l-.97.06-.98-.05z" stroke="#008a0e" stroke-width=".05" fill="#008a0e"/><path d="M81.37 1098.42l-4.64-14.27h9.28z" fill="#008a0e"/><path d="M81.37 1101.65l-6-18.5h12zm-3.26-16.5l3.27 10.03 3.26-10.03z" stroke="#008a0e" stroke-width=".05" fill="#008a0e"/><use xlink:href="#r" transform="matrix(1,0,0,1,66.06174292394077,936.8042861415678) translate(0 14.222222222222223)"/><path d="M81.37 1223.15V1413a6 6 0 0 0 6 6h358.36" stroke="#3a414a" fill="none"/><path d="M81.87 1223.17h-1v-.52h1z" stroke="#3a414a" stroke-width=".05" fill="#3a414a"/><path d="M460.5 1419l-14.27 4.65v-9.27z" stroke="#3a414a" fill="#3a414a"/><path d="M542.62 1480v37.73h-.02v21.86" stroke="#3a414a" fill="none"/><path d="M543.12 1480.03h-1v-.52h1z" stroke="#3a414a" stroke-width=".05" fill="#3a414a"/><path d="M542.6 1554.36l-4.65-14.27h9.27z" stroke="#3a414a" fill="#3a414a"/><path d="M452.6 1562.48a6 6 0 0 1 6-6h168a6 6 0 0 1 6 6v108a6 6 0 0 1-6 6h-168a6 6 0 0 1-6-6z" stroke="#3a414a" fill="#fff"/><use xlink:href="#K" transform="matrix(1,0,0,1,464.58869247570897,1568.4767697782718) translate(16.30246913580247 53.77777777777778)"/><use xlink:href="#L" transform="matrix(1,0,0,1,464.58869247570897,1568.4767697782718) translate(70.62345679012347 53.77777777777778)"/><use xlink:href="#M" transform="matrix(1,0,0,1,464.58869247570897,1568.4767697782718) translate(95.31481481481482 53.77777777777778)"/><path d="M547.96-122.04a7.57 7.57 0 0 1 9.4 0l83.78 66.42a4.76 4.76 0 0 1 0 7.46l-83.78 66.4a7.57 7.57 0 0 1-9.4.02l-83.78-66.42a4.76 4.76 0 0 1 0-7.46z" stroke="#3a414a" fill="#fff"/><use xlink:href="#N" transform="matrix(1,0,0,1,464.4786854215723,-120.76402578463177) translate(36.09759259259259 60.90277777777778)"/><use xlink:href="#O" transform="matrix(1,0,0,1,464.4786854215723,-120.76402578463177) translate(37.44944444444444 87.56944444444446)"/><use xlink:href="#P" transform="matrix(1,0,0,1,464.4786854215723,-120.76402578463177) translate(59.60993827160493 87.56944444444446)"/><path d="M553.66 150.75h-2V67.57h2zm0-104.5h-2V21.38h2z" stroke="#e81313" stroke-width=".05" fill="#e81313"/><path d="M552.66 20.4l1-.07v1.1h-2v-1.1z" fill="#e81313"/><path d="M552.66 20.37l1.02-.07v1.14h-2.05V20.3zm-.98 1.02h1.95v-1.05l-.97.07-.98-.07z" stroke="#e81313" stroke-width=".05" fill="#e81313"/><path d="M552.66 166.02l-4.64-14.27h9.27z" fill="#e81313"/><path d="M552.66 169.25l-6-18.5h12zm-3.26-16.5l3.26 10.03 3.26-10.03z" stroke="#e81313" stroke-width=".05" fill="#e81313"/><use xlink:href="#q" transform="matrix(1,0,0,1,540.85590233645,46.23612197171026) translate(0 14.222222222222223)"/><path d="M552.66-210.57v70" stroke="#3a414a" fill="none"/><path d="M552.65-211.07l.5-.02v.54h-1v-.54z" stroke="#3a414a" stroke-width=".05" fill="#3a414a"/><path d="M552.66-125.8l-4.64-14.26h9.27z" stroke="#3a414a" fill="#3a414a"/><path d="M721.45-50.9h-77v-2h77zm90.12 0h-59.5v-2h59.5z" stroke="#008a0e" stroke-width=".05" fill="#008a0e"/><path d="M644.47-50.9h-1.13l.1-1-.1-.93 1.13-.06z" fill="#008a0e"/><path d="M644.5-50.87h-1.2l.12-1.02-.1-.96 1.17-.06zm-1.12-1.94l.1.9-.1.98h1.06v-1.94z" stroke="#008a0e" stroke-width=".05" fill="#008a0e"/><path d="M826.84-51.9l-14.27 4.64v-9.27z" fill="#008a0e"/><path d="M830.07-51.9l-18.5 6.02V-57.9zm-16.5 3.27l10.03-3.26-10.03-3.25z" stroke="#008a0e" stroke-width=".05" fill="#008a0e"/><use xlink:href="#r" transform="matrix(1,0,0,1,721.4470186222762,-62.55733855450747) translate(0 14.222222222222223)"/><path d="M830.57-122.16a6 6 0 0 1 6-6h194a6 6 0 0 1 6 6V18.38a6 6 0 0 1-6 6h-194a6 6 0 0 1-6-6z" stroke="#3a414a" fill="#fff"/><use xlink:href="#l" transform="matrix(1,0,0,1,842.5712440145969,-116.160682125573) translate(21.555555555555557 41.96527777777778)"/><use xlink:href="#Q" transform="matrix(1,0,0,1,842.5712440145969,-116.160682125573) translate(106.18518518518518 41.96527777777778)"/><use xlink:href="#R" transform="matrix(1,0,0,1,842.5712440145969,-116.160682125573) translate(4.0864197530864175 68.63194444444446)"/><use xlink:href="#S" transform="matrix(1,0,0,1,842.5712440145969,-116.160682125573) translate(107.66666666666667 68.63194444444446)"/><use xlink:href="#T" transform="matrix(1,0,0,1,842.5712440145969,-116.160682125573) translate(39.82716049382716 95.29861111111111)"/><path d="M934.07 91.1l-.08.98-.25 1-.4.94-.52.87-.66.76-.78.67-.88.53-.94.4-1 .23-1 .07H558.7l-.88.07-.84.2-.8.33-.73.45-.66.56-.56.65-.44.74-.33.8-.2.84-.07.9v49.77h-1v-49.82l.08-1 .24-1 .38-.94.54-.85.66-.78.78-.66.87-.53.95-.4 1-.22 1-.08h368.9l.88-.07.84-.2.8-.33.73-.45.66-.56.56-.66.45-.74.33-.8.2-.83.07-.88V25.38h1z" stroke="#3a414a" stroke-width=".05" fill="#3a414a"/><path d="M934.07 25.4h-1v-.52h1z" fill="#3a414a"/><path d="M934.1 25.42h-1.05v-.57h1.05zm-1-.52v.47h.95v-.47z" stroke="#3a414a" stroke-width=".05" fill="#3a414a"/><path d="M552.66 167.64l-4.64-14.27h9.27z" fill="#3a414a"/><path d="M552.66 169.25l-5.32-16.38h10.64zm-3.95-15.38l3.96 12.15 3.95-12.15z" stroke="#3a414a" stroke-width=".05" fill="#3a414a"/><path d="M-97.64 817.17a8 8 0 0 1 9.6 0l70.4 52.8a4.5 4.5 0 0 1 0 7.2l-70.4 52.8a8 8 0 0 1-9.6 0l-70.4-52.8a4.5 4.5 0 0 1 0-7.2z" stroke="#3a414a" fill="#fff"/><use xlink:href="#U" transform="matrix(1,0,0,1,-167.84298118637872,818.5753920604291) translate(46.671666666666674 45.27777777777778)"/><use xlink:href="#F" transform="matrix(1,0,0,1,-167.84298118637872,818.5753920604291) translate(50.40623456790124 71.94444444444446)"/><path d="M-64.87 735.8H-86.8l-.83.05-.76.18-.7.3-.68.4-.6.52-.5.6-.42.67-.3.72-.18.76-.06.83v55.74h-2v-55.82l.08-1.06.26-1.08.42-1 .57-.95.7-.84.84-.7.94-.58 1-.42 1.08-.26 1.06-.08h22zm67.74 0h-44.14v-2H2.87z" stroke="#e81313" stroke-width=".05" fill="#e81313"/><path d="M3.95 733.86l-.08.93.08.9-1.1.1v-2h1.13z" fill="#e81313"/><path d="M3.98 733.87l-.1.92.1.93-1.16.08v-2.04h1.2zm-1.1-.06v1.96l1.05-.08-.1-.9.1-.92v-.05z" stroke="#e81313" stroke-width=".05" fill="#e81313"/><path d="M-92.84 811.84l-4.64-14.27h9.27z" fill="#e81313"/><path d="M-92.84 815.07l-6.02-18.5h12.03zm-3.26-16.5l3.26 10.03 3.26-10.03z" stroke="#e81313" stroke-width=".05" fill="#e81313"/><use xlink:href="#q" transform="matrix(1,0,0,1,-64.87363280364598,724.1190834734499) translate(0 14.222222222222223)"/><path d="M-91.84 1083.15h-2v-55.62h2zm0-76.95h-2v-73.12h2z" stroke="#008a0e" stroke-width=".05" fill="#008a0e"/><path d="M-92.84 932.08l1-.07v1.1h-2V932z" fill="#008a0e"/><path d="M-92.84 932.05l1.02-.06v1.13h-2.05V932zm-.98 1.03h1.95v-1.04l-.97.06-.98-.06z" stroke="#008a0e" stroke-width=".05" fill="#008a0e"/><path d="M-92.84 1098.42l-4.64-14.27h9.27z" fill="#008a0e"/><path d="M-92.84 1101.65l-6.02-18.5h12.03zm-3.26-16.5l3.26 10.03 3.26-10.03z" stroke="#008a0e" stroke-width=".05" fill="#008a0e"/><g><use xlink:href="#r" transform="matrix(1,0,0,1,-108.15162316168737,1006.199107101724) translate(0 14.222222222222223)"/></g><path d="M-172.84 1108.15a6 6 0 0 1 6-6h148a6 6 0 0 1 6 6v108a6 6 0 0 1-6 6h-148a6 6 0 0 1-6-6z" stroke="#3a414a" fill="#fff"/><g><use xlink:href="#s" transform="matrix(1,0,0,1,-160.84298118637872,1114.1550890178194) translate(2.7222222222222285 38.77777777777778)"/><use xlink:href="#V" transform="matrix(1,0,0,1,-160.84298118637872,1114.1550890178194) translate(76.6111111111111 38.77777777777778)"/><use xlink:href="#u" transform="matrix(1,0,0,1,-160.84298118637872,1114.1550890178194) translate(34.51234567901235 65.44444444444446)"/></g><path d="M-92.84 1223.15V1413a6 6 0 0 0 6 6h532.57" stroke="#3a414a" fill="none"/><path d="M-92.34 1223.17h-1v-.52h1z" stroke="#3a414a" stroke-width=".05" fill="#3a414a"/><path d="M460.5 1419l-14.27 4.65v-9.27z" stroke="#3a414a" fill="#3a414a"/><path d="M-209.34 1412.97l.06.82.18.76.3.72.4.67.52.6.6.5.67.4.7.3.77.2.82.06H443.6v2h-648l-1.06-.07-1.07-.26-1.02-.42-.94-.57-.84-.72-.7-.83-.6-.94-.4-1.02-.26-1.07-.1-1.05.02-28.6h2zm38-538.4h-32.97l-.83.07-.76.18-.7.3-.68.4-.6.52-.5.6-.42.67-.3.73-.18.76-.06.82v483.5h-2V879.54l.08-1.06.25-1.07.4-1 .6-.94.7-.84.84-.7.94-.58 1-.43 1.08-.24 1.06-.08h33.03z" stroke="#e81313" stroke-width=".05" fill="#e81313"/><path d="M-170.26 872.65l-.1.93.1.92-1.1.08v-2h1.12z" fill="#e81313"/><path d="M-170.24 872.66l-.08.92.1.94-1.18.08v-2.05h1.2zm-1.1-.06v1.95l1.05-.07-.07-.9.1-.93v-.05z" stroke="#e81313" stroke-width=".05" fill="#e81313"/><path d="M458.88 1419l-14.26 4.65v-9.27z" fill="#e81313"/><path d="M462.12 1419l-18.5 6.02V1413zm-16.5 3.27l10.02-3.26-10.02-3.25z" stroke="#e81313" stroke-width=".05" fill="#e81313"/><g><use xlink:href="#q" transform="matrix(1,0,0,1,-222.14756530118797,1363.1203285170207) translate(0 14.222222222222223)"/></g><path d="M452.6 1741.4a6 6 0 0 1 6-6h168a6 6 0 0 1 6 6v108a6 6 0 0 1-6 6h-168a6 6 0 0 1-6-6z" stroke="#3a414a" fill="#fff"/><g><use xlink:href="#W" transform="matrix(1,0,0,1,464.58869247570897,1747.3996334861267) translate(41.08641975308642 38.77777777777778)"/><use xlink:href="#X" transform="matrix(1,0,0,1,464.58869247570897,1747.3996334861267) translate(75.4074074074074 38.77777777777778)"/><use xlink:href="#Y" transform="matrix(1,0,0,1,464.58869247570897,1747.3996334861267) translate(15.808641975308653 65.44444444444446)"/><use xlink:href="#Z" transform="matrix(1,0,0,1,464.58869247570897,1747.3996334861267) translate(88.52469135802468 65.44444444444446)"/></g><path d="M542.6 1677.48v41.04" stroke="#3a414a" fill="none"/><path d="M543.1 1677.5h-1v-.52h1z" stroke="#3a414a" stroke-width=".05" fill="#3a414a"/><path d="M542.6 1733.28l-4.65-14.26h9.27z" stroke="#3a414a" fill="#3a414a"/><path d="M170 214.13a6 6 0 0 1 6-6h148a6 6 0 0 1 6 6v108a6 6 0 0 1-6 6H176a6 6 0 0 1-6-6z" stroke="#3a414a" fill="#fff"/><g><use xlink:href="#aa" transform="matrix(1,0,0,1,182,220.1327638844465) translate(33.46296296296296 38.77777777777778)"/><use xlink:href="#ab" transform="matrix(1,0,0,1,182,220.1327638844465) translate(23.617283950617285 65.44444444444446)"/></g><path d="M374.54 269.13H349v-2h25.54zm66.63 0h-43.03v-2h43.04z" stroke="#e81313" stroke-width=".05" fill="#e81313"/><path d="M442.26 267.15l-.08.98.08 1h-1.1v-2h1.1z" fill="#e81313"/><path d="M442.28 267.15l-.08.98.1 1-1.18.03v-2.05h1.18zm-1.1 0v1.96h1.05l-.08-.97.08-.97z" stroke="#e81313" stroke-width=".05" fill="#e81313"/><path d="M348 272.77l-14.26-4.64L348 263.5z" fill="#e81313"/><path d="M349 274.14l-18.5-6 18.5-6.02zm-12.03-6l10.03 3.25v-6.53z" stroke="#e81313" stroke-width=".05" fill="#e81313"/><g><use xlink:href="#ac" transform="matrix(1,0,0,1,374.5350651888751,257.4660971453955) translate(0 14.222222222222223)"/></g><path d="M169 268.13H87.37a6 6 0 0 0-6 6v131.8" stroke="#3a414a" fill="none"/><path d="M169.5 268.63h-.5v-1h.5z" stroke="#3a414a" stroke-width=".05" fill="#3a414a"/><path d="M81.37 420.7l-4.64-14.26h9.28z" stroke="#3a414a" fill="#3a414a"/><defs><path fill="#3a414a" d="M185-189c-5-48-123-54-124 2 14 75 158 14 163 119 3 78-121 87-175 55-17-10-28-26-33-46l33-7c5 56 141 63 141-1 0-78-155-14-162-118-5-82 145-84 179-34 5 7 8 16 11 25" id="ad"/><path fill="#3a414a" d="M59-47c-2 24 18 29 38 22v24C64 9 27 4 27-40v-127H5v-23h24l9-43h21v43h35v23H59v120" id="ae"/><path fill="#3a414a" d="M141-36C126-15 110 5 73 4 37 3 15-17 15-53c-1-64 63-63 125-63 3-35-9-54-41-54-24 1-41 7-42 31l-33-3c5-37 33-52 76-52 45 0 72 20 72 64v82c-1 20 7 32 28 27v20c-31 9-61-2-59-35zM48-53c0 20 12 33 32 33 41-3 63-29 60-74-43 2-92-5-92 41" id="af"/><path fill="#3a414a" d="M114-163C36-179 61-72 57 0H25l-1-190h30c1 12-1 29 2 39 6-27 23-49 58-41v29" id="ag"/><g id="a"><use transform="matrix(0.06172839506172839,0,0,0.06172839506172839,0,0)" xlink:href="#ad"/><use transform="matrix(0.06172839506172839,0,0,0.06172839506172839,14.814814814814813,0)" xlink:href="#ae"/><use transform="matrix(0.06172839506172839,0,0,0.06172839506172839,20.98765432098765,0)" xlink:href="#af"/><use transform="matrix(0.06172839506172839,0,0,0.06172839506172839,33.33333333333333,0)" xlink:href="#ag"/><use transform="matrix(0.06172839506172839,0,0,0.06172839506172839,40.679012345679006,0)" xlink:href="#ae"/></g><path fill="#3a414a" d="M212-179c-10-28-35-45-73-45-59 0-87 40-87 99 0 60 29 101 89 101 43 0 62-24 78-52l27 14C228-24 195 4 139 4 59 4 22-46 18-125c-6-104 99-153 187-111 19 9 31 26 39 46" id="ah"/><path fill="#3a414a" d="M30-248c87 1 191-15 191 75 0 78-77 80-158 76V0H30v-248zm33 125c57 0 124 11 124-50 0-59-68-47-124-48v98" id="ai"/><path fill="#3a414a" d="M85-194c31 0 48 13 60 33l-1-100h32l1 261h-30c-2-10 0-23-3-31C134-8 116 4 85 4 32 4 16-35 15-94c0-66 23-100 70-100zm9 24c-40 0-46 34-46 75 0 40 6 74 45 74 42 0 51-32 51-76 0-42-9-74-50-73" id="aj"/><g id="b"><use transform="matrix(0.06172839506172839,0,0,0.06172839506172839,0,0)" xlink:href="#ah"/><use transform="matrix(0.06172839506172839,0,0,0.06172839506172839,15.987654320987653,0)" xlink:href="#ai"/><use transform="matrix(0.06172839506172839,0,0,0.06172839506172839,30.80246913580247,0)" xlink:href="#ah"/><use transform="matrix(0.06172839506172839,0,0,0.06172839506172839,46.79012345679012,0)" xlink:href="#aj"/></g><path fill="#3a414a" d="M84 4C-5 8 30-112 23-190h32v120c0 31 7 50 39 49 72-2 45-101 50-169h31l1 190h-30c-1-10 1-25-2-33-11 22-28 36-60 37" id="ak"/><path fill="#3a414a" d="M115-194c55 1 70 41 70 98S169 2 115 4C84 4 66-9 55-30l1 105H24l-1-265h31l2 30c10-21 28-34 59-34zm-8 174c40 0 45-34 45-75s-6-73-45-74c-42 0-51 32-51 76 0 43 10 73 51 73" id="al"/><g id="c"><use transform="matrix(0.06172839506172839,0,0,0.06172839506172839,0,0)" xlink:href="#ad"/><use transform="matrix(0.06172839506172839,0,0,0.06172839506172839,14.814814814814813,0)" xlink:href="#ae"/><use transform="matrix(0.06172839506172839,0,0,0.06172839506172839,20.98765432098765,0)" xlink:href="#af"/><use transform="matrix(0.06172839506172839,0,0,0.06172839506172839,33.33333333333333,0)" xlink:href="#ag"/><use transform="matrix(0.06172839506172839,0,0,0.06172839506172839,40.679012345679006,0)" xlink:href="#ae"/><use transform="matrix(0.06172839506172839,0,0,0.06172839506172839,46.85185185185185,0)" xlink:href="#ak"/><use transform="matrix(0.06172839506172839,0,0,0.06172839506172839,59.197530864197525,0)" xlink:href="#al"/></g><path fill="#3a414a" d="M63-220v92h138v28H63V0H30v-248h175v28H63" id="am"/><path fill="#3a414a" d="M24-231v-30h32v30H24zM24 0v-190h32V0H24" id="an"/><path fill="#3a414a" d="M24 0v-261h32V0H24" id="ao"/><path fill="#3a414a" d="M100-194c63 0 86 42 84 106H49c0 40 14 67 53 68 26 1 43-12 49-29l28 8c-11 28-37 45-77 45C44 4 14-33 15-96c1-61 26-98 85-98zm52 81c6-60-76-77-97-28-3 7-6 17-6 28h103" id="ap"/><g id="d"><use transform="matrix(0.06172839506172839,0,0,0.06172839506172839,0,0)" xlink:href="#am"/><use transform="matrix(0.06172839506172839,0,0,0.06172839506172839,13.518518518518517,0)" xlink:href="#af"/><use transform="matrix(0.06172839506172839,0,0,0.06172839506172839,25.864197530864196,0)" xlink:href="#an"/><use transform="matrix(0.06172839506172839,0,0,0.06172839506172839,30.74074074074074,0)" xlink:href="#ao"/><use transform="matrix(0.06172839506172839,0,0,0.06172839506172839,35.617283950617285,0)" xlink:href="#ap"/><use transform="matrix(0.06172839506172839,0,0,0.06172839506172839,47.96296296296296,0)" xlink:href="#aj"/></g><g id="e"><use transform="matrix(0.06172839506172839,0,0,0.06172839506172839,0,0)" xlink:href="#ad"/><use transform="matrix(0.06172839506172839,0,0,0.06172839506172839,14.814814814814813,0)" xlink:href="#ap"/><use transform="matrix(0.06172839506172839,0,0,0.06172839506172839,27.160493827160494,0)" xlink:href="#ag"/><use transform="matrix(0.06172839506172839,0,0,0.06172839506172839,34.50617283950617,0)" xlink:href="#an"/><use transform="matrix(0.06172839506172839,0,0,0.06172839506172839,39.382716049382715,0)" xlink:href="#af"/><use transform="matrix(0.06172839506172839,0,0,0.06172839506172839,51.72839506172839,0)" xlink:href="#ao"/></g><path fill="#3a414a" d="M30 0v-248h33v221h125V0H30" id="aq"/><path fill="#3a414a" d="M117-194c89-4 53 116 60 194h-32v-121c0-31-8-49-39-48C34-167 62-67 57 0H25l-1-190h30c1 10-1 24 2 32 11-22 29-35 61-36" id="ar"/><path fill="#3a414a" d="M143 0L79-87 56-68V0H24v-261h32v163l83-92h37l-77 82L181 0h-38" id="as"/><g id="f"><use transform="matrix(0.06172839506172839,0,0,0.06172839506172839,0,0)" xlink:href="#aq"/><use transform="matrix(0.06172839506172839,0,0,0.06172839506172839,12.345679012345679,0)" xlink:href="#an"/><use transform="matrix(0.06172839506172839,0,0,0.06172839506172839,17.22222222222222,0)" xlink:href="#ar"/><use transform="matrix(0.06172839506172839,0,0,0.06172839506172839,29.5679012345679,0)" xlink:href="#as"/></g><path fill="#333" d="M238-95c0 69-44 99-111 99C63 4 22-25 22-93v-155h51v151c-1 38 19 59 55 60 90 1 49-130 58-211h52v153" id="at"/><path fill="#333" d="M199 0l-22-63H83L61 0H9l90-248h61L250 0h-51zm-33-102l-36-108c-10 38-24 72-36 108h72" id="au"/><path fill="#333" d="M240-174c0 40-23 61-54 70L253 0h-59l-57-94H76V0H24v-248c93 4 217-23 216 74zM76-134c48-2 112 12 112-38 0-48-66-32-112-35v73" id="av"/><path fill="#333" d="M136-208V0H84v-208H4v-40h212v40h-80" id="aw"/><g id="g"><use transform="matrix(0.04938271604938272,0,0,0.04938271604938272,0,0)" xlink:href="#at"/><use transform="matrix(0.04938271604938272,0,0,0.04938271604938272,12.790123456790125,0)" xlink:href="#au"/><use transform="matrix(0.04938271604938272,0,0,0.04938271604938272,25.58024691358025,0)" xlink:href="#av"/><use transform="matrix(0.04938271604938272,0,0,0.04938271604938272,38.370370370370374,0)" xlink:href="#aw"/></g><path fill="#3a414a" d="M233-177c-1 41-23 64-60 70L243 0h-38l-65-103H63V0H30v-248c88 3 205-21 203 71zM63-129c60-2 137 13 137-47 0-61-80-42-137-45v92" id="ax"/><g id="h"><use transform="matrix(0.06172839506172839,0,0,0.06172839506172839,0,0)" xlink:href="#ax"/><use transform="matrix(0.06172839506172839,0,0,0.06172839506172839,15.987654320987653,0)" xlink:href="#ak"/><use transform="matrix(0.06172839506172839,0,0,0.06172839506172839,28.333333333333332,0)" xlink:href="#ar"/></g><path fill="#3a414a" d="M232-93c-1 65-40 97-104 97C67 4 28-28 28-90v-158h33c8 89-33 224 67 224 102 0 64-133 71-224h33v155" id="ay"/><path fill="#3a414a" d="M205 0l-28-72H64L36 0H1l101-248h38L239 0h-34zm-38-99l-47-123c-12 45-31 82-46 123h93" id="az"/><path fill="#3a414a" d="M127-220V0H93v-220H8v-28h204v28h-85" id="aA"/><g id="i"><use transform="matrix(0.06172839506172839,0,0,0.06172839506172839,0,0)" xlink:href="#ay"/><use transform="matrix(0.06172839506172839,0,0,0.06172839506172839,15.987654320987653,0)" xlink:href="#az"/><use transform="matrix(0.06172839506172839,0,0,0.06172839506172839,30.80246913580247,0)" xlink:href="#ax"/><use transform="matrix(0.06172839506172839,0,0,0.06172839506172839,46.358024691358025,0)" xlink:href="#aA"/></g><path fill="#3a414a" d="M137 0h-34L2-248h35l83 218 83-218h36" id="aB"/><path fill="#3a414a" d="M100-194c62-1 85 37 85 99 1 63-27 99-86 99S16-35 15-95c0-66 28-99 85-99zM99-20c44 1 53-31 53-75 0-43-8-75-51-75s-53 32-53 75 10 74 51 75" id="aC"/><g id="j"><use transform="matrix(0.06172839506172839,0,0,0.06172839506172839,0,0)" xlink:href="#aB"/><use transform="matrix(0.06172839506172839,0,0,0.06172839506172839,13.148148148148147,0)" xlink:href="#af"/><use transform="matrix(0.06172839506172839,0,0,0.06172839506172839,25.493827160493826,0)" xlink:href="#ao"/><use transform="matrix(0.06172839506172839,0,0,0.06172839506172839,30.370370370370367,0)" xlink:href="#an"/><use transform="matrix(0.06172839506172839,0,0,0.06172839506172839,35.24691358024691,0)" xlink:href="#aj"/><use transform="matrix(0.06172839506172839,0,0,0.06172839506172839,47.59259259259259,0)" xlink:href="#af"/><use transform="matrix(0.06172839506172839,0,0,0.06172839506172839,59.938271604938265,0)" xlink:href="#ae"/><use transform="matrix(0.06172839506172839,0,0,0.06172839506172839,66.1111111111111,0)" xlink:href="#an"/><use transform="matrix(0.06172839506172839,0,0,0.06172839506172839,70.98765432098764,0)" xlink:href="#aC"/><use transform="matrix(0.06172839506172839,0,0,0.06172839506172839,83.33333333333333,0)" xlink:href="#ar"/></g><path fill="#333" d="M169-182c-1-43-94-46-97-3 18 66 151 10 154 114 3 95-165 93-204 36-6-8-10-19-12-30l50-8c3 46 112 56 116 5-17-69-150-10-154-114-4-87 153-88 188-35 5 8 8 18 10 28" id="aD"/><path fill="#333" d="M24-248c93 1 206-16 204 79-1 75-69 88-152 82V0H24v-248zm52 121c47 0 100 7 100-41 0-47-54-39-100-39v80" id="aE"/><path fill="#333" d="M24 0v-248h52V0H24" id="aF"/><g id="k"><use transform="matrix(0.04938271604938272,0,0,0.04938271604938272,0,0)" xlink:href="#aD"/><use transform="matrix(0.04938271604938272,0,0,0.04938271604938272,11.851851851851853,0)" xlink:href="#aE"/><use transform="matrix(0.04938271604938272,0,0,0.04938271604938272,23.703703703703706,0)" xlink:href="#aF"/></g><g id="l"><use transform="matrix(0.06172839506172839,0,0,0.06172839506172839,0,0)" xlink:href="#aB"/><use transform="matrix(0.06172839506172839,0,0,0.06172839506172839,13.148148148148147,0)" xlink:href="#af"/><use transform="matrix(0.06172839506172839,0,0,0.06172839506172839,25.493827160493826,0)" xlink:href="#ao"/><use transform="matrix(0.06172839506172839,0,0,0.06172839506172839,30.370370370370367,0)" xlink:href="#an"/><use transform="matrix(0.06172839506172839,0,0,0.06172839506172839,35.24691358024691,0)" xlink:href="#aj"/><use transform="matrix(0.06172839506172839,0,0,0.06172839506172839,47.59259259259259,0)" xlink:href="#af"/><use transform="matrix(0.06172839506172839,0,0,0.06172839506172839,59.938271604938265,0)" xlink:href="#ae"/><use transform="matrix(0.06172839506172839,0,0,0.06172839506172839,66.1111111111111,0)" xlink:href="#ap"/></g><path fill="#3a414a" d="M33 0v-248h34V0H33" id="aG"/><g id="m"><use transform="matrix(0.06172839506172839,0,0,0.06172839506172839,0,0)" xlink:href="#ad"/><use transform="matrix(0.06172839506172839,0,0,0.06172839506172839,14.814814814814813,0)" xlink:href="#ai"/><use transform="matrix(0.06172839506172839,0,0,0.06172839506172839,29.629629629629626,0)" xlink:href="#aG"/></g><g id="n"><use transform="matrix(0.06172839506172839,0,0,0.06172839506172839,0,0)" xlink:href="#ai"/><use transform="matrix(0.06172839506172839,0,0,0.06172839506172839,14.814814814814813,0)" xlink:href="#an"/><use transform="matrix(0.06172839506172839,0,0,0.06172839506172839,19.691358024691354,0)" xlink:href="#ar"/><use transform="matrix(0.06172839506172839,0,0,0.06172839506172839,32.03703703703703,0)" xlink:href="#aC"/><use transform="matrix(0.06172839506172839,0,0,0.06172839506172839,44.38271604938271,0)" xlink:href="#ak"/><use transform="matrix(0.06172839506172839,0,0,0.06172839506172839,56.728395061728385,0)" xlink:href="#ae"/></g><path fill="#3a414a" d="M30-248c118-7 216 8 213 122C240-48 200 0 122 0H30v-248zM63-27c89 8 146-16 146-99s-60-101-146-95v194" id="aH"/><path fill="#3a414a" d="M210-169c-67 3-38 105-44 169h-31v-121c0-29-5-50-35-48C34-165 62-65 56 0H25l-1-190h30c1 10-1 24 2 32 10-44 99-50 107 0 11-21 27-35 58-36 85-2 47 119 55 194h-31v-121c0-29-5-49-35-48" id="aI"/><g id="o"><use transform="matrix(0.06172839506172839,0,0,0.06172839506172839,0,0)" xlink:href="#aH"/><use transform="matrix(0.06172839506172839,0,0,0.06172839506172839,15.987654320987653,0)" xlink:href="#af"/><use transform="matrix(0.06172839506172839,0,0,0.06172839506172839,28.333333333333332,0)" xlink:href="#ap"/><use transform="matrix(0.06172839506172839,0,0,0.06172839506172839,40.67901234567901,0)" xlink:href="#aI"/><use transform="matrix(0.06172839506172839,0,0,0.06172839506172839,59.1358024691358,0)" xlink:href="#aC"/><use transform="matrix(0.06172839506172839,0,0,0.06172839506172839,71.48148148148148,0)" xlink:href="#ar"/></g><path fill="#3a414a" d="M135-143c-3-34-86-38-87 0 15 53 115 12 119 90S17 21 10-45l28-5c4 36 97 45 98 0-10-56-113-15-118-90-4-57 82-63 122-42 12 7 21 19 24 35" id="aJ"/><path fill="#3a414a" d="M106-169C34-169 62-67 57 0H25v-261h32l-1 103c12-21 28-36 61-36 89 0 53 116 60 194h-32v-121c2-32-8-49-39-48" id="aK"/><g id="p"><use transform="matrix(0.06172839506172839,0,0,0.06172839506172839,0,0)" xlink:href="#ah"/><use transform="matrix(0.06172839506172839,0,0,0.06172839506172839,15.987654320987653,0)" xlink:href="#ag"/><use transform="matrix(0.06172839506172839,0,0,0.06172839506172839,23.333333333333332,0)" xlink:href="#af"/><use transform="matrix(0.06172839506172839,0,0,0.06172839506172839,35.67901234567901,0)" xlink:href="#aJ"/><use transform="matrix(0.06172839506172839,0,0,0.06172839506172839,46.79012345679013,0)" xlink:href="#aK"/><use transform="matrix(0.06172839506172839,0,0,0.06172839506172839,59.135802469135804,0)" xlink:href="#ap"/><use transform="matrix(0.06172839506172839,0,0,0.06172839506172839,71.48148148148148,0)" xlink:href="#aj"/></g><path fill="#333" d="M175 0L67-191c6 58 2 128 3 191H24v-248h59L193-55c-6-58-2-129-3-193h46V0h-61" id="aL"/><path fill="#333" d="M110-194c64 0 96 36 96 99 0 64-35 99-97 99-61 0-95-36-95-99 0-62 34-99 96-99zm-1 164c35 0 45-28 45-65 0-40-10-65-43-65-34 0-45 26-45 65 0 36 10 65 43 65" id="aM"/><g id="q"><use transform="matrix(0.04938271604938272,0,0,0.04938271604938272,0,0)" xlink:href="#aL"/><use transform="matrix(0.04938271604938272,0,0,0.04938271604938272,12.790123456790125,0)" xlink:href="#aM"/></g><path fill="#333" d="M146-102V0H94v-102L6-248h54l60 105 60-105h54" id="aN"/><path fill="#333" d="M185-48c-13 30-37 53-82 52C43 2 14-33 14-96s30-98 90-98c62 0 83 45 84 108H66c0 31 8 55 39 56 18 0 30-7 34-22zm-45-69c5-46-57-63-70-21-2 6-4 13-4 21h74" id="aO"/><path fill="#333" d="M137-138c1-29-70-34-71-4 15 46 118 7 119 86 1 83-164 76-172 9l43-7c4 19 20 25 44 25 33 8 57-30 24-41C81-84 22-81 20-136c-2-80 154-74 161-7" id="aP"/><g id="r"><use transform="matrix(0.04938271604938272,0,0,0.04938271604938272,0,0)" xlink:href="#aN"/><use transform="matrix(0.04938271604938272,0,0,0.04938271604938272,10.864197530864198,0)" xlink:href="#aO"/><use transform="matrix(0.04938271604938272,0,0,0.04938271604938272,20.74074074074074,0)" xlink:href="#aP"/></g><path fill="#3a414a" d="M96-169c-40 0-48 33-48 73s9 75 48 75c24 0 41-14 43-38l32 2c-6 37-31 61-74 61-59 0-76-41-82-99-10-93 101-131 147-64 4 7 5 14 7 22l-32 3c-4-21-16-35-41-35" id="aQ"/><g id="s"><use transform="matrix(0.06172839506172839,0,0,0.06172839506172839,0,0)" xlink:href="#ah"/><use transform="matrix(0.06172839506172839,0,0,0.06172839506172839,15.987654320987653,0)" xlink:href="#aC"/><use transform="matrix(0.06172839506172839,0,0,0.06172839506172839,28.333333333333332,0)" xlink:href="#ao"/><use transform="matrix(0.06172839506172839,0,0,0.06172839506172839,33.20987654320987,0)" xlink:href="#ao"/><use transform="matrix(0.06172839506172839,0,0,0.06172839506172839,38.08641975308642,0)" xlink:href="#ap"/><use transform="matrix(0.06172839506172839,0,0,0.06172839506172839,50.432098765432094,0)" xlink:href="#aQ"/><use transform="matrix(0.06172839506172839,0,0,0.06172839506172839,61.5432098765432,0)" xlink:href="#ae"/></g><g id="t"><use transform="matrix(0.06172839506172839,0,0,0.06172839506172839,0,0)" xlink:href="#ah"/><use transform="matrix(0.06172839506172839,0,0,0.06172839506172839,15.987654320987653,0)" xlink:href="#ai"/><use transform="matrix(0.06172839506172839,0,0,0.06172839506172839,30.80246913580247,0)" xlink:href="#ah"/><use transform="matrix(0.06172839506172839,0,0,0.06172839506172839,46.79012345679012,0)" xlink:href="#aj"/></g><g id="u"><use transform="matrix(0.06172839506172839,0,0,0.06172839506172839,0,0)" xlink:href="#aA"/><use transform="matrix(0.06172839506172839,0,0,0.06172839506172839,12.716049382716047,0)" xlink:href="#ag"/><use transform="matrix(0.06172839506172839,0,0,0.06172839506172839,20.061728395061728,0)" xlink:href="#af"/><use transform="matrix(0.06172839506172839,0,0,0.06172839506172839,32.407407407407405,0)" xlink:href="#aQ"/><use transform="matrix(0.06172839506172839,0,0,0.06172839506172839,43.51851851851852,0)" xlink:href="#ap"/><use transform="matrix(0.06172839506172839,0,0,0.06172839506172839,55.864197530864196,0)" xlink:href="#aJ"/></g><g id="v"><use transform="matrix(0.06172839506172839,0,0,0.06172839506172839,0,0)" xlink:href="#aj"/><use transform="matrix(0.06172839506172839,0,0,0.06172839506172839,12.345679012345679,0)" xlink:href="#af"/><use transform="matrix(0.06172839506172839,0,0,0.06172839506172839,24.691358024691358,0)" xlink:href="#ae"/><use transform="matrix(0.06172839506172839,0,0,0.06172839506172839,30.864197530864196,0)" xlink:href="#af"/></g><path fill="#3a414a" d="M101-234c-31-9-42 10-38 44h38v23H63V0H32v-167H5v-23h27c-7-52 17-82 69-68v24" id="aR"/><g id="w"><use transform="matrix(0.06172839506172839,0,0,0.06172839506172839,0,0)" xlink:href="#aR"/><use transform="matrix(0.06172839506172839,0,0,0.06172839506172839,6.172839506172839,0)" xlink:href="#ag"/><use transform="matrix(0.06172839506172839,0,0,0.06172839506172839,13.518518518518519,0)" xlink:href="#aC"/><use transform="matrix(0.06172839506172839,0,0,0.06172839506172839,25.864197530864196,0)" xlink:href="#aI"/></g><g id="x"><use transform="matrix(0.06172839506172839,0,0,0.06172839506172839,0,0)" xlink:href="#ae"/><use transform="matrix(0.06172839506172839,0,0,0.06172839506172839,6.172839506172839,0)" xlink:href="#aK"/><use transform="matrix(0.06172839506172839,0,0,0.06172839506172839,18.51851851851852,0)" xlink:href="#ap"/></g><path fill="#3a414a" d="M179-190L93 31C79 59 56 82 12 73V49c39 6 53-20 64-50L1-190h34L92-34l54-156h33" id="aS"/><g id="y"><use transform="matrix(0.06172839506172839,0,0,0.06172839506172839,0,0)" xlink:href="#aJ"/><use transform="matrix(0.06172839506172839,0,0,0.06172839506172839,11.11111111111111,0)" xlink:href="#ap"/><use transform="matrix(0.06172839506172839,0,0,0.06172839506172839,23.45679012345679,0)" xlink:href="#aQ"/><use transform="matrix(0.06172839506172839,0,0,0.06172839506172839,34.5679012345679,0)" xlink:href="#aC"/><use transform="matrix(0.06172839506172839,0,0,0.06172839506172839,46.913580246913575,0)" xlink:href="#ar"/><use transform="matrix(0.06172839506172839,0,0,0.06172839506172839,59.25925925925925,0)" xlink:href="#aj"/><use transform="matrix(0.06172839506172839,0,0,0.06172839506172839,71.60493827160494,0)" xlink:href="#af"/><use transform="matrix(0.06172839506172839,0,0,0.06172839506172839,83.95061728395062,0)" xlink:href="#ag"/><use transform="matrix(0.06172839506172839,0,0,0.06172839506172839,91.2962962962963,0)" xlink:href="#aS"/></g><g id="z"><use transform="matrix(0.06172839506172839,0,0,0.06172839506172839,0,0)" xlink:href="#aB"/><use transform="matrix(0.06172839506172839,0,0,0.06172839506172839,13.148148148148147,0)" xlink:href="#af"/><use transform="matrix(0.06172839506172839,0,0,0.06172839506172839,25.493827160493826,0)" xlink:href="#ao"/><use transform="matrix(0.06172839506172839,0,0,0.06172839506172839,30.370370370370367,0)" xlink:href="#an"/><use transform="matrix(0.06172839506172839,0,0,0.06172839506172839,35.24691358024691,0)" xlink:href="#aj"/><use transform="matrix(0.06172839506172839,0,0,0.06172839506172839,47.59259259259259,0)" xlink:href="#af"/><use transform="matrix(0.06172839506172839,0,0,0.06172839506172839,59.938271604938265,0)" xlink:href="#ae"/><use transform="matrix(0.06172839506172839,0,0,0.06172839506172839,66.1111111111111,0)" xlink:href="#ap"/></g><path fill="#3a414a" d="M160-131c35 5 61 23 61 61C221 17 115-2 30 0v-248c76 3 177-17 177 60 0 33-19 50-47 57zm-97-11c50-1 110 9 110-42 0-47-63-36-110-37v79zm0 115c55-2 124 14 124-45 0-56-70-42-124-44v89" id="aT"/><g id="A"><use transform="matrix(0.06172839506172839,0,0,0.06172839506172839,0,0)" xlink:href="#aT"/><use transform="matrix(0.06172839506172839,0,0,0.06172839506172839,14.814814814814813,0)" xlink:href="#af"/><use transform="matrix(0.06172839506172839,0,0,0.06172839506172839,27.160493827160494,0)" xlink:href="#ak"/><use transform="matrix(0.06172839506172839,0,0,0.06172839506172839,39.50617283950617,0)" xlink:href="#aj"/><use transform="matrix(0.06172839506172839,0,0,0.06172839506172839,51.85185185185185,0)" xlink:href="#ag"/><use transform="matrix(0.06172839506172839,0,0,0.06172839506172839,59.197530864197525,0)" xlink:href="#af"/><use transform="matrix(0.06172839506172839,0,0,0.06172839506172839,71.5432098765432,0)" xlink:href="#ae"/><use transform="matrix(0.06172839506172839,0,0,0.06172839506172839,77.71604938271604,0)" xlink:href="#ap"/></g><path fill="#3a414a" d="M234-2c-28 10-62 0-77-18C117 19 8 12 13-65c3-43 29-61 60-76-25-40-17-114 47-108 35 3 59 15 59 50 0 44-40 53-71 69 14 26 32 50 51 72 14-21 24-43 30-72l26 8c-9 33-21 57-38 82 13 13 33 22 57 15v23zM97-151c25-10 52-18 56-48-1-18-13-29-33-29-42 0-39 50-23 77zM42-66c-3 51 71 58 98 28-20-24-41-51-56-80-23 10-40 24-42 52" id="aU"/><use transform="matrix(0.06172839506172839,0,0,0.06172839506172839,0,0)" xlink:href="#aU" id="B"/><path fill="#3a414a" d="M206 0h-36l-40-164L89 0H53L-1-190h32L70-26l43-164h34l41 164 42-164h31" id="aV"/><g id="C"><use transform="matrix(0.06172839506172839,0,0,0.06172839506172839,0,0)" xlink:href="#am"/><use transform="matrix(0.06172839506172839,0,0,0.06172839506172839,13.518518518518517,0)" xlink:href="#ao"/><use transform="matrix(0.06172839506172839,0,0,0.06172839506172839,18.39506172839506,0)" xlink:href="#aC"/><use transform="matrix(0.06172839506172839,0,0,0.06172839506172839,30.74074074074074,0)" xlink:href="#aV"/></g><g id="D"><use transform="matrix(0.06172839506172839,0,0,0.06172839506172839,0,0)" xlink:href="#ah"/><use transform="matrix(0.06172839506172839,0,0,0.06172839506172839,15.987654320987653,0)" xlink:href="#aC"/><use transform="matrix(0.06172839506172839,0,0,0.06172839506172839,28.333333333333332,0)" xlink:href="#ar"/><use transform="matrix(0.06172839506172839,0,0,0.06172839506172839,40.67901234567901,0)" xlink:href="#ae"/><use transform="matrix(0.06172839506172839,0,0,0.06172839506172839,46.851851851851855,0)" xlink:href="#ag"/><use transform="matrix(0.06172839506172839,0,0,0.06172839506172839,54.19753086419753,0)" xlink:href="#aC"/><use transform="matrix(0.06172839506172839,0,0,0.06172839506172839,66.54320987654322,0)" xlink:href="#ao"/></g><path fill="#3a414a" d="M30 0v-248h187v28H63v79h144v27H63v87h162V0H30" id="aW"/><g id="E"><use transform="matrix(0.06172839506172839,0,0,0.06172839506172839,0,0)" xlink:href="#aW"/><use transform="matrix(0.06172839506172839,0,0,0.06172839506172839,14.814814814814813,0)" xlink:href="#ar"/><use transform="matrix(0.06172839506172839,0,0,0.06172839506172839,27.160493827160494,0)" xlink:href="#aj"/><use transform="matrix(0.06172839506172839,0,0,0.06172839506172839,39.50617283950617,0)" xlink:href="#al"/><use transform="matrix(0.06172839506172839,0,0,0.06172839506172839,51.85185185185185,0)" xlink:href="#aC"/><use transform="matrix(0.06172839506172839,0,0,0.06172839506172839,64.19753086419753,0)" xlink:href="#an"/><use transform="matrix(0.06172839506172839,0,0,0.06172839506172839,69.07407407407408,0)" xlink:href="#ar"/><use transform="matrix(0.06172839506172839,0,0,0.06172839506172839,81.41975308641976,0)" xlink:href="#ae"/></g><g id="F"><use transform="matrix(0.06172839506172839,0,0,0.06172839506172839,0,0)" xlink:href="#aW"/><use transform="matrix(0.06172839506172839,0,0,0.06172839506172839,14.814814814814813,0)" xlink:href="#ag"/><use transform="matrix(0.06172839506172839,0,0,0.06172839506172839,22.160493827160494,0)" xlink:href="#ag"/><use transform="matrix(0.06172839506172839,0,0,0.06172839506172839,29.50617283950617,0)" xlink:href="#aC"/><use transform="matrix(0.06172839506172839,0,0,0.06172839506172839,41.85185185185185,0)" xlink:href="#ag"/></g><g id="G"><use transform="matrix(0.06172839506172839,0,0,0.06172839506172839,0,0)" xlink:href="#ax"/><use transform="matrix(0.06172839506172839,0,0,0.06172839506172839,15.987654320987653,0)" xlink:href="#ak"/><use transform="matrix(0.06172839506172839,0,0,0.06172839506172839,28.333333333333332,0)" xlink:href="#ar"/></g><path fill="#3a414a" d="M143 4C61 4 22-44 18-125c-5-107 100-154 193-111 17 8 29 25 37 43l-32 9c-13-25-37-40-76-40-61 0-88 39-88 99 0 61 29 100 91 101 35 0 62-11 79-27v-45h-74v-28h105v86C228-13 192 4 143 4" id="aX"/><g id="H"><use transform="matrix(0.06172839506172839,0,0,0.06172839506172839,0,0)" xlink:href="#aX"/><use transform="matrix(0.06172839506172839,0,0,0.06172839506172839,17.28395061728395,0)" xlink:href="#aH"/><use transform="matrix(0.06172839506172839,0,0,0.06172839506172839,33.2716049382716,0)" xlink:href="#aT"/></g><g id="I"><use transform="matrix(0.06172839506172839,0,0,0.06172839506172839,0,0)" xlink:href="#aX"/><use transform="matrix(0.06172839506172839,0,0,0.06172839506172839,17.28395061728395,0)" xlink:href="#ap"/><use transform="matrix(0.06172839506172839,0,0,0.06172839506172839,29.629629629629626,0)" xlink:href="#ae"/></g><g id="J"><use transform="matrix(0.06172839506172839,0,0,0.06172839506172839,0,0)" xlink:href="#ah"/><use transform="matrix(0.06172839506172839,0,0,0.06172839506172839,15.987654320987653,0)" xlink:href="#af"/><use transform="matrix(0.06172839506172839,0,0,0.06172839506172839,28.333333333333332,0)" xlink:href="#ao"/><use transform="matrix(0.06172839506172839,0,0,0.06172839506172839,33.20987654320987,0)" xlink:href="#ao"/><use transform="matrix(0.06172839506172839,0,0,0.06172839506172839,38.08641975308642,0)" xlink:href="#aJ"/><use transform="matrix(0.06172839506172839,0,0,0.06172839506172839,49.19753086419753,0)" xlink:href="#ae"/><use transform="matrix(0.06172839506172839,0,0,0.06172839506172839,55.370370370370374,0)" xlink:href="#af"/><use transform="matrix(0.06172839506172839,0,0,0.06172839506172839,67.71604938271605,0)" xlink:href="#aQ"/><use transform="matrix(0.06172839506172839,0,0,0.06172839506172839,78.82716049382717,0)" xlink:href="#as"/></g><g id="K"><use transform="matrix(0.06172839506172839,0,0,0.06172839506172839,0,0)" xlink:href="#aq"/><use transform="matrix(0.06172839506172839,0,0,0.06172839506172839,12.345679012345679,0)" xlink:href="#aC"/><use transform="matrix(0.06172839506172839,0,0,0.06172839506172839,24.691358024691358,0)" xlink:href="#aC"/><use transform="matrix(0.06172839506172839,0,0,0.06172839506172839,37.03703703703704,0)" xlink:href="#as"/></g><g id="L"><use transform="matrix(0.06172839506172839,0,0,0.06172839506172839,0,0)" xlink:href="#af"/><use transform="matrix(0.06172839506172839,0,0,0.06172839506172839,12.345679012345679,0)" xlink:href="#ae"/></g><path fill="#3a414a" d="M140-251c81 0 123 46 123 126C263-53 228-8 163 1c7 30 30 48 69 40v23c-55 16-95-15-103-61C56-3 17-48 17-125c0-80 42-126 123-126zm0 227c63 0 89-41 89-101s-29-99-89-99c-61 0-89 39-89 99S79-25 140-24" id="aY"/><g id="M"><use transform="matrix(0.06172839506172839,0,0,0.06172839506172839,0,0)" xlink:href="#am"/><use transform="matrix(0.06172839506172839,0,0,0.06172839506172839,12.28395061728395,0)" xlink:href="#az"/><use transform="matrix(0.06172839506172839,0,0,0.06172839506172839,27.098765432098762,0)" xlink:href="#aY"/></g><g id="N"><use transform="matrix(0.06172839506172839,0,0,0.06172839506172839,0,0)" xlink:href="#aW"/><use transform="matrix(0.06172839506172839,0,0,0.06172839506172839,14.814814814814813,0)" xlink:href="#ar"/><use transform="matrix(0.06172839506172839,0,0,0.06172839506172839,27.160493827160494,0)" xlink:href="#aQ"/><use transform="matrix(0.06172839506172839,0,0,0.06172839506172839,38.27160493827161,0)" xlink:href="#ag"/><use transform="matrix(0.06172839506172839,0,0,0.06172839506172839,45.617283950617285,0)" xlink:href="#aS"/><use transform="matrix(0.06172839506172839,0,0,0.06172839506172839,56.72839506172839,0)" xlink:href="#al"/><use transform="matrix(0.06172839506172839,0,0,0.06172839506172839,69.07407407407408,0)" xlink:href="#ae"/><use transform="matrix(0.06172839506172839,0,0,0.06172839506172839,75.24691358024691,0)" xlink:href="#an"/><use transform="matrix(0.06172839506172839,0,0,0.06172839506172839,80.12345679012346,0)" xlink:href="#aC"/><use transform="matrix(0.06172839506172839,0,0,0.06172839506172839,92.46913580246914,0)" xlink:href="#ar"/></g><g id="O"><use transform="matrix(0.06172839506172839,0,0,0.06172839506172839,0,0)" xlink:href="#an"/><use transform="matrix(0.06172839506172839,0,0,0.06172839506172839,4.876543209876543,0)" xlink:href="#aJ"/></g><path fill="#3a414a" d="M115-194c53 0 69 39 70 98 0 66-23 100-70 100C84 3 66-7 56-30L54 0H23l1-261h32v101c10-23 28-34 59-34zm-8 174c40 0 45-34 45-75 0-40-5-75-45-74-42 0-51 32-51 76 0 43 10 73 51 73" id="aZ"/><g id="P"><use transform="matrix(0.06172839506172839,0,0,0.06172839506172839,0,0)" xlink:href="#ap"/><use transform="matrix(0.06172839506172839,0,0,0.06172839506172839,12.345679012345679,0)" xlink:href="#ar"/><use transform="matrix(0.06172839506172839,0,0,0.06172839506172839,24.691358024691358,0)" xlink:href="#af"/><use transform="matrix(0.06172839506172839,0,0,0.06172839506172839,37.03703703703704,0)" xlink:href="#aZ"/><use transform="matrix(0.06172839506172839,0,0,0.06172839506172839,49.382716049382715,0)" xlink:href="#ao"/><use transform="matrix(0.06172839506172839,0,0,0.06172839506172839,54.25925925925926,0)" xlink:href="#ap"/><use transform="matrix(0.06172839506172839,0,0,0.06172839506172839,66.60493827160494,0)" xlink:href="#aj"/></g><g id="Q"><use transform="matrix(0.06172839506172839,0,0,0.06172839506172839,0,0)" xlink:href="#aJ"/><use transform="matrix(0.06172839506172839,0,0,0.06172839506172839,11.11111111111111,0)" xlink:href="#af"/><use transform="matrix(0.06172839506172839,0,0,0.06172839506172839,23.45679012345679,0)" xlink:href="#aI"/><use transform="matrix(0.06172839506172839,0,0,0.06172839506172839,41.91358024691358,0)" xlink:href="#ap"/></g><path fill="#3a414a" d="M108 0H70L1-190h34L89-25l56-165h34" id="ba"/><g id="R"><use transform="matrix(0.06172839506172839,0,0,0.06172839506172839,0,0)" xlink:href="#aZ"/><use transform="matrix(0.06172839506172839,0,0,0.06172839506172839,12.345679012345679,0)" xlink:href="#ap"/><use transform="matrix(0.06172839506172839,0,0,0.06172839506172839,24.691358024691358,0)" xlink:href="#aK"/><use transform="matrix(0.06172839506172839,0,0,0.06172839506172839,37.03703703703704,0)" xlink:href="#af"/><use transform="matrix(0.06172839506172839,0,0,0.06172839506172839,49.382716049382715,0)" xlink:href="#ba"/><use transform="matrix(0.06172839506172839,0,0,0.06172839506172839,60.49382716049382,0)" xlink:href="#an"/><use transform="matrix(0.06172839506172839,0,0,0.06172839506172839,65.37037037037037,0)" xlink:href="#aC"/><use transform="matrix(0.06172839506172839,0,0,0.06172839506172839,77.71604938271605,0)" xlink:href="#ak"/><use transform="matrix(0.06172839506172839,0,0,0.06172839506172839,90.06172839506173,0)" xlink:href="#ag"/></g><g id="S"><use transform="matrix(0.06172839506172839,0,0,0.06172839506172839,0,0)" xlink:href="#aV"/><use transform="matrix(0.06172839506172839,0,0,0.06172839506172839,15.987654320987653,0)" xlink:href="#an"/><use transform="matrix(0.06172839506172839,0,0,0.06172839506172839,20.864197530864196,0)" xlink:href="#ae"/><use transform="matrix(0.06172839506172839,0,0,0.06172839506172839,27.037037037037035,0)" xlink:href="#aK"/><use transform="matrix(0.06172839506172839,0,0,0.06172839506172839,39.382716049382715,0)" xlink:href="#aC"/><use transform="matrix(0.06172839506172839,0,0,0.06172839506172839,51.72839506172839,0)" xlink:href="#ak"/><use transform="matrix(0.06172839506172839,0,0,0.06172839506172839,64.07407407407408,0)" xlink:href="#ae"/></g><g id="T"><use transform="matrix(0.06172839506172839,0,0,0.06172839506172839,0,0)" xlink:href="#ap"/><use transform="matrix(0.06172839506172839,0,0,0.06172839506172839,12.345679012345679,0)" xlink:href="#ar"/><use transform="matrix(0.06172839506172839,0,0,0.06172839506172839,24.691358024691358,0)" xlink:href="#aQ"/><use transform="matrix(0.06172839506172839,0,0,0.06172839506172839,35.80246913580247,0)" xlink:href="#ag"/><use transform="matrix(0.06172839506172839,0,0,0.06172839506172839,43.148148148148145,0)" xlink:href="#aS"/><use transform="matrix(0.06172839506172839,0,0,0.06172839506172839,54.25925925925925,0)" xlink:href="#al"/><use transform="matrix(0.06172839506172839,0,0,0.06172839506172839,66.60493827160494,0)" xlink:href="#ae"/><use transform="matrix(0.06172839506172839,0,0,0.06172839506172839,72.77777777777777,0)" xlink:href="#an"/><use transform="matrix(0.06172839506172839,0,0,0.06172839506172839,77.65432098765432,0)" xlink:href="#aC"/><use transform="matrix(0.06172839506172839,0,0,0.06172839506172839,90,0)" xlink:href="#ar"/></g><g id="U"><use transform="matrix(0.06172839506172839,0,0,0.06172839506172839,0,0)" xlink:href="#ao"/><use transform="matrix(0.06172839506172839,0,0,0.06172839506172839,4.876543209876543,0)" xlink:href="#an"/><use transform="matrix(0.06172839506172839,0,0,0.06172839506172839,9.753086419753085,0)" xlink:href="#aZ"/><use transform="matrix(0.06172839506172839,0,0,0.06172839506172839,22.098765432098766,0)" xlink:href="#aQ"/><use transform="matrix(0.06172839506172839,0,0,0.06172839506172839,33.20987654320987,0)" xlink:href="#al"/><use transform="matrix(0.06172839506172839,0,0,0.06172839506172839,45.55555555555555,0)" xlink:href="#aQ"/></g><g id="V"><use transform="matrix(0.06172839506172839,0,0,0.06172839506172839,0,0)" xlink:href="#ao"/><use transform="matrix(0.06172839506172839,0,0,0.06172839506172839,4.876543209876543,0)" xlink:href="#an"/><use transform="matrix(0.06172839506172839,0,0,0.06172839506172839,9.753086419753085,0)" xlink:href="#aZ"/><use transform="matrix(0.06172839506172839,0,0,0.06172839506172839,22.098765432098766,0)" xlink:href="#aQ"/><use transform="matrix(0.06172839506172839,0,0,0.06172839506172839,33.20987654320987,0)" xlink:href="#al"/><use transform="matrix(0.06172839506172839,0,0,0.06172839506172839,45.55555555555555,0)" xlink:href="#aQ"/></g><g id="W"><use transform="matrix(0.06172839506172839,0,0,0.06172839506172839,0,0)" xlink:href="#am"/><use transform="matrix(0.06172839506172839,0,0,0.06172839506172839,13.518518518518517,0)" xlink:href="#an"/><use transform="matrix(0.06172839506172839,0,0,0.06172839506172839,18.39506172839506,0)" xlink:href="#ao"/><use transform="matrix(0.06172839506172839,0,0,0.06172839506172839,23.2716049382716,0)" xlink:href="#ao"/></g><path fill="#3a414a" d="M177-190C167-65 218 103 67 71c-23-6-38-20-44-43l32-5c15 47 100 32 89-28v-30C133-14 115 1 83 1 29 1 15-40 15-95c0-56 16-97 71-98 29-1 48 16 59 35 1-10 0-23 2-32h30zM94-22c36 0 50-32 50-73 0-42-14-75-50-75-39 0-46 34-46 75s6 73 46 73" id="bb"/><g id="X"><use transform="matrix(0.06172839506172839,0,0,0.06172839506172839,0,0)" xlink:href="#aT"/><use transform="matrix(0.06172839506172839,0,0,0.06172839506172839,14.814814814814813,0)" xlink:href="#ak"/><use transform="matrix(0.06172839506172839,0,0,0.06172839506172839,27.160493827160494,0)" xlink:href="#bb"/></g><g id="Y"><use transform="matrix(0.06172839506172839,0,0,0.06172839506172839,0,0)" xlink:href="#ax"/><use transform="matrix(0.06172839506172839,0,0,0.06172839506172839,15.987654320987653,0)" xlink:href="#ap"/><use transform="matrix(0.06172839506172839,0,0,0.06172839506172839,28.333333333333332,0)" xlink:href="#al"/><use transform="matrix(0.06172839506172839,0,0,0.06172839506172839,40.67901234567901,0)" xlink:href="#aC"/><use transform="matrix(0.06172839506172839,0,0,0.06172839506172839,53.02469135802469,0)" xlink:href="#ag"/><use transform="matrix(0.06172839506172839,0,0,0.06172839506172839,60.37037037037037,0)" xlink:href="#ae"/></g><g id="Z"><use transform="matrix(0.06172839506172839,0,0,0.06172839506172839,0,0)" xlink:href="#am"/><use transform="matrix(0.06172839506172839,0,0,0.06172839506172839,13.518518518518517,0)" xlink:href="#aC"/><use transform="matrix(0.06172839506172839,0,0,0.06172839506172839,25.864197530864196,0)" xlink:href="#ag"/><use transform="matrix(0.06172839506172839,0,0,0.06172839506172839,33.20987654320987,0)" xlink:href="#aI"/></g><g id="aa"><use transform="matrix(0.06172839506172839,0,0,0.06172839506172839,0,0)" xlink:href="#aW"/><use transform="matrix(0.06172839506172839,0,0,0.06172839506172839,14.814814814814813,0)" xlink:href="#ar"/><use transform="matrix(0.06172839506172839,0,0,0.06172839506172839,27.160493827160494,0)" xlink:href="#af"/><use transform="matrix(0.06172839506172839,0,0,0.06172839506172839,39.50617283950617,0)" xlink:href="#aZ"/><use transform="matrix(0.06172839506172839,0,0,0.06172839506172839,51.85185185185185,0)" xlink:href="#ao"/><use transform="matrix(0.06172839506172839,0,0,0.06172839506172839,56.72839506172839,0)" xlink:href="#ap"/></g><g id="ab"><use transform="matrix(0.06172839506172839,0,0,0.06172839506172839,0,0)" xlink:href="#ad"/><use transform="matrix(0.06172839506172839,0,0,0.06172839506172839,14.814814814814813,0)" xlink:href="#ae"/><use transform="matrix(0.06172839506172839,0,0,0.06172839506172839,20.98765432098765,0)" xlink:href="#af"/><use transform="matrix(0.06172839506172839,0,0,0.06172839506172839,33.33333333333333,0)" xlink:href="#ae"/><use transform="matrix(0.06172839506172839,0,0,0.06172839506172839,39.50617283950617,0)" xlink:href="#an"/><use transform="matrix(0.06172839506172839,0,0,0.06172839506172839,44.382716049382715,0)" xlink:href="#aJ"/><use transform="matrix(0.06172839506172839,0,0,0.06172839506172839,55.49382716049382,0)" xlink:href="#ae"/><use transform="matrix(0.06172839506172839,0,0,0.06172839506172839,61.666666666666664,0)" xlink:href="#an"/><use transform="matrix(0.06172839506172839,0,0,0.06172839506172839,66.5432098765432,0)" xlink:href="#aQ"/><use transform="matrix(0.06172839506172839,0,0,0.06172839506172839,77.65432098765432,0)" xlink:href="#aJ"/></g><g id="ac"><use transform="matrix(0.04938271604938272,0,0,0.04938271604938272,0,0)" xlink:href="#aL"/><use transform="matrix(0.04938271604938272,0,0,0.04938271604938272,12.790123456790125,0)" xlink:href="#aM"/></g></defs></g></svg>